<svg xmlns="http://www.w3.org/2000/svg" viewBox="0 0 621.67 583.22" fill="currentColor">
<path fill-rule="evenodd" d="M259.28 199.15L257.28 198.15L259.28 199.15M253.28 195.15L257.28 198.15M253.28 195.15L253.58 195.45C253.56 195.43 253.18 195.25 253.28 195.15M262.28 191.15L260.28 195.15L262.28 191.15M206.28 178.15L262.28 191.15M206.28 178.15L206.58 178.45C206.56 178.43 206.18 178.25 206.28 178.15M208.28 174.15L204.28 177.15M208.28 174.15L208.58 174.45C208.56 174.43 208.18 174.25 208.28 174.15M214.28 167.15L217.28 169.15M214.28 167.15L214.58 167.45C214.56 167.43 214.18 167.25 214.28 167.15M229.28 149.15L222.28 150.15M229.28 149.15L229.58 149.45C229.56 149.43 229.18 149.25 229.28 149.15M226.28 147.15L226.58 147.45C226.56 147.43 226.18 147.25 226.28 147.15M233.28 138.15L236.28 140.15M233.28 138.15L232.28 137.15L233.28 138.15M253.28 113.15L252.28 112.15L253.28 113.15M264.28 111.15L263.28 110.15L264.28 111.15M263.28 110.15L262.28 109.15L263.28 110.15M262.28 109.15L261.28 108.15L262.28 109.15M261.28 108.15L260.28 107.15L261.28 108.15M272.28 103.15L260.28 107.15M272.28 103.15L271.28 102.15L272.28 103.15M271.28 102.15L270.28 101.15L271.28 102.15M270.28 101.15L269.28 100.15L270.28 101.15M394.28 79.15L269.28 100.15M394.28 79.15L395.28 81.15L394.28 79.15L393.13 77.2L394.28 79.15M402.28 75.15C402.28 72.59 403.86 74.99 402.87 75.15C402.86 75.15 402.28 77.94 402.28 75.15M392.28 75.15C392.28 72.59 393.86 74.99 392.87 75.15C392.86 75.15 392.28 77.94 392.28 75.15M412.28 75.15C411.26 73.81 411.28 77.25 411.28 72.15C412.2 73.37 411.93 71.03 412.28 75.15M335.28 46.15L424.28 72.15M335.28 46.15L335.58 46.45C335.56 46.43 335.18 46.25 335.28 46.15M345.28 41.15L346.28 43.15M345.28 41.15L346.28 43.15L345.28 41.15M385.28 24.15L385.58 24.45C385.56 24.43 385.18 24.25 385.28 24.15M345.28 41.15C340.02 38.98 318.13 57.56 311.28 59.15C309.12 55.93 309.26 54.21 305.28 53.15C307.15 55.94 309.28 57.4 310.28 61.15C303.21 64.89 288.1 77.43 280.73 83.6L277.03 86.9C275.03 88.86 274.51 89.66 272.28 91.15L271.28 92.15C269.34 95.05 269.21 95.24 265.28 96.15C265.36 96.35 266.88 96.62 263.87 99.63C260.21 103.28 255.48 107.38 252.28 112.15C249.26 114.17 249.19 114.85 246.8 117.67C246.61 117.89 246.05 118.51 245.86 118.73L239.55 126.42C235.97 131.19 232.74 131.64 232.28 137.15C228.57 138.14 227.16 141.44 224.71 145.58C224.6 145.77 224.45 146.02 224.33 146.21C222.84 148.74 223.17 146.83 222.28 150.15C217.75 153.18 208.83 169.44 206.34 173.76C205.83 174.65 204.93 175.93 204.28 177.15L203.41 178.28C198.41 185.89 192.2 197.03 192.2 206.15C192.2 234.4 232.23 252.75 250.55 215.42L252 212.81C255.21 207.71 255.29 209.65 252.28 205.15L256.24 206.27L256.28 203.15C252.64 202.3 253.07 202.6 251.28 200.15C254.2 200.83 255.91 201.9 258.28 203.15L259.28 199.15L261.23 198.07C260.58 195.5 261.36 197.33 260.28 195.15C262.22 194.64 261.83 194.97 263.28 194.15C262.58 191.5 263.36 193.33 262.28 191.15C266.46 190.79 266.93 190.34 267.28 186.15C264.43 185.47 265.77 186.3 264.28 184.15C260.57 183.16 262.99 183.14 259.28 182.15L252.41 193.29C252.36 193.38 251.49 195.18 251.43 195.3C250.44 197.49 251.14 194.92 250.28 198.15L237.45 191.81C240.06 197.82 239.17 195.33 248.28 200.15L243.85 206.72C241.94 209.34 236.79 232.37 215.08 225.35C204.94 222.08 197.65 209.91 203.9 196.78L208.36 189.23C208.98 187.82 208.83 188.07 209.28 186.15L213.24 187.27C211.14 183.95 211.64 186.45 211.28 182.15C213.87 183.52 217.51 186.19 220.33 185.7C222.45 185.33 221.31 187.07 222.28 184.15C218.85 183.35 216.12 181.65 213.28 180.15C215.5 176.83 217.06 173.47 219.28 170.15L217.28 169.15C221.49 168.8 220.04 169.25 222.05 165.92C223.28 163.87 223.75 162.83 225.12 161C227.41 157.92 229.42 154.07 232.28 152.15C233.5 146.93 243.97 135.42 247.5 131.37C249.36 129.24 249.54 128.5 251.52 126.39C256.82 120.73 260.64 114.39 265.28 113.15L264.28 111.15C267.91 110.18 271.31 106.78 272.28 103.15C275.23 102.36 276.49 100.84 278.68 98.56L314.28 69.15C317.94 70.13 316.37 70.21 319.28 72.15C317.88 66.91 316.1 70.86 318.28 66.15C323.01 67.41 319.71 68.09 324.28 71.15C323.59 68.56 322.54 67.53 321.28 65.15L340.27 53.14C347.3 49.5 354.14 45.88 361.43 42.3C370.84 37.68 374.43 37.38 379.18 35.11C390.92 29.52 402.34 28.04 406.28 26.15C407.73 29.18 406.72 30.21 409.28 33.15C408.99 29.62 406.48 25.16 411.27 25.14C416.42 25.11 413.45 25.09 414.28 27.15C416.64 23.75 416.88 23.64 422.67 22.54C450.28 17.29 455.75 44.36 444.08 55.95C439.32 60.68 432.21 62.95 423.28 63.15C422.58 60.23 423.41 61.71 421.28 60.15C421.14 66.45 422.29 62.75 417.28 65.15C416.4 63.32 415.83 61.49 415.18 59.25C414.03 55.29 415.19 55.28 412.28 53.15C412.37 57.34 413.89 63.26 415.28 66.15C408.99 66.29 401.99 69.25 397.28 71.15C394.6 72.23 392.28 73.16 389.42 74.29C388.05 74.83 386.41 75.41 385.1 75.97L381.28 78.15L382.28 80.15L383.28 82.15L384.28 84.15L385.43 86.1C388.56 84.58 393.21 83.98 395.28 81.15C398.69 82.56 400.27 80.02 403.27 78.44L407.64 77.52C410.58 76.82 410.6 76.61 412.28 75.15C414.73 76.16 413.73 75.63 417.71 74.69C418.43 74.52 420.44 74.11 421.03 73.92C423.34 73.16 422.53 73.67 424.28 72.15C435.43 72.15 440.27 70.61 447.11 65.98C469.23 51.03 459.59 15.89 435.06 12.37C419.41 10.13 374.68 25.25 359.79 32.66C357.68 33.7 356.22 34.29 354.36 35.23C347.81 38.56 346.49 37.82 345.28 41.15Z"/><path fill-rule="evenodd" d="M237.28 361.15L237.83 359L237.28 361.15M213.28 353.15L246.28 354.15M213.28 353.15L213.58 353.45C213.56 353.43 213.18 353.25 213.28 353.15M220.28 352.15C220.28 349.59 221.86 351.99 220.87 352.15C220.86 352.15 220.28 354.94 220.28 352.15M175.28 341.15L175.83 339L175.28 341.15M176.28 337.15L176.58 337.45C176.56 337.43 176.18 337.25 176.28 337.15M156.28 335.15L172.28 337.15M156.28 335.15L157.43 337.1L156.28 335.15M177.28 335.15L177.58 335.45C177.56 335.43 177.18 335.25 177.28 335.15M173.28 333.15L173.58 333.45C173.56 333.43 173.18 333.25 173.28 333.15M154.28 329.15L153.28 331.15L154.28 329.15M151.28 329.15L151.58 329.45C151.56 329.43 151.18 329.25 151.28 329.15M154.28 329.15L154.83 327L154.28 329.15M152.28 327.15L152.58 327.45C152.56 327.43 152.18 327.25 152.28 327.15M153.28 325.15L162.28 325.15M153.28 325.15L153.58 325.45C153.56 325.43 153.18 325.25 153.28 325.15M153.28 331.15C153.56 333.76 153.26 332.26 154.07 333.36L155.64 334.8C155.75 334.89 156.08 335.01 156.28 335.15C154.13 336.65 154.96 335.3 154.28 338.15L156.28 339.15C158.43 337.66 157.6 339 158.28 336.15C161.93 337.13 161.55 338.23 167.85 339.81L169.68 340.36C170.85 340.9 171.74 342.85 175.28 341.15L175.28 344.15C178.85 344.23 193.43 350.13 198.68 351.75C203.21 353.16 204.26 352.35 205.28 356.15L206.43 354.2C208.7 354.72 210.29 355.2 212.28 356.15C211.05 358.71 208.36 367.52 208.28 371.15L210.28 371.15C210.28 363.7 213.13 362.88 213.28 356.15L231.72 360.82C235.56 361.68 235.11 362.05 237.28 361.15C239.59 363.16 238.67 362.57 242.21 363.22C269.75 368.29 291.42 370.14 319.28 370.15C331.79 370.15 338.39 370.42 346.03 364.9C359.51 355.15 364.5 337.38 352.74 321.69C348.29 315.75 341.32 311.57 333.05 310.38C325.29 309.26 309.87 310.15 301.28 310.15L301.28 320.15C319.42 320.15 349.39 314.13 349.39 340.15C349.39 366.41 318.59 360.15 300.28 360.15L300.28 363.15C299.35 361.93 299.63 364.28 299.28 360.15C291.14 360.15 286.12 359.15 277.28 359.15L276.28 357.15L273.2 358.14C269.34 358.54 251.4 354.58 246.28 354.15L237.69 352.03C230.5 350.15 218.8 349.24 210.28 345.15C210.72 339.86 212.28 340.21 212.28 333.15C211.54 334.21 212.25 332.76 211.21 335.08C210.62 336.39 210.68 336.23 210.13 338C209.5 340.02 209.24 342.15 208.28 344.15C202.32 344.02 182.45 336.51 176.41 333.01L163.28 328.15L163.28 325.15L162.28 325.15L163.28 321.15C159.54 323.89 161.51 326.31 158.83 325.43C156.04 324.52 158.18 325.72 158.34 321.22L158.28 320.15C154.61 321.37 157.33 319.19 156.28 324.15C153.08 323.3 154.57 323.52 151.67 321.76C149.18 320.26 148.67 320.29 146.35 319.08C143.1 317.39 139.77 315.04 136.47 312.96C131.95 310.1 119.75 303.53 117.28 300.15C115.1 299.57 114.63 299.29 113.17 298.26C110.67 296.49 111.1 297.21 110.28 294.15L108.33 295.24L107.28 293.15L95.14 283.29C93.1 281.41 92.85 281.5 91.28 279.15C89.07 277.98 89.61 278.35 87.64 276.74C85.86 275.3 87.17 276.62 86.05 275.31C83.8 272.69 85.66 275.06 84.81 273.1C83.64 270.42 87.59 272.94 83.18 270.8C81.66 270.07 82.66 271.41 79.28 269.15C80.63 264.11 81.93 267.19 83.28 262.15L78.45 266.34C75.08 264.01 73.28 261.18 70.36 258.07C48.05 234.24 82.11 206.57 101.35 232.15C107.82 240.73 99.98 235.13 107.28 238.15C105.06 241.47 104.58 239.55 103.28 243.15C108.12 241.86 104.43 241.44 109.28 240.15C109.98 243.45 110.55 241.99 108.62 244.46C106.65 246.97 99.54 252.42 98.28 257.15C102.41 254.38 109.62 249.13 112.28 245.15C117.09 246.89 111.47 245.41 116.28 247.15C117.95 244.66 119.01 243.02 122.28 242.15L117.08 247.96L120.28 251.15L121.28 250.15L122.28 249.15L123.28 248.15L124.28 247.15L125.28 246.15L126.28 245.15L119.51 237.92L113.47 243.35C113.38 238.5 113.4 238.19 117.28 237.15C116.42 233.95 103.42 219.74 99.45 216.98C83.26 205.69 56.15 214.84 53.36 239.28C51.7 253.89 64.41 266.86 74.03 276.4L93.85 294.58C106.61 304.59 106.7 305.47 122.09 315.34C124.33 316.78 125.8 317.94 128.07 319.36C132.35 322.02 149.29 332.8 153.28 331.15Z"/><path fill-rule="evenodd" d="M592.28 217.15L592.58 217.45C592.56 217.43 592.18 217.25 592.28 217.15M590.28 216.15L590.58 216.45C590.56 216.43 590.18 216.25 590.28 216.15M588.28 215.15C588.38 215.05 588.58 215.31 588.58 215.45L588.28 215.15M603.28 183.15C603.38 183.05 603.58 183.31 603.58 183.45L603.28 183.15M602.28 134.15C602.39 134.33 602.48 134.46 602.5 134.76L603.29 148.15C603.29 155.31 602.28 159.2 602.28 165.15L602.28 166.15C600.47 169.92 601.05 180.01 596.91 187.69L593.86 197.73C593.28 199.38 593.32 199.96 592.78 201.65L580.79 226.67C579.19 228.58 580.16 227.22 579.28 228.15C578.33 231.71 574.15 237.57 571.86 240.73C566.28 248.43 560.79 256.27 554.03 262.9C551.72 265.16 551.14 265.93 549.29 268.24C548.17 269.64 548.49 270.03 545.78 270.88C543.36 271.63 544.73 270.19 544.12 272.14C543.33 274.65 541.69 276.13 539.13 278C537.77 278.99 538.57 278.47 537.28 279.15L521.28 293.15L520.19 295.1L518.28 294.15C517.43 297.32 518.34 295.53 515.81 297.68C513.97 299.24 513.67 299.51 511.28 300.15C509.8 302.17 508.08 303.4 505.28 304.15C503.42 306.69 496.43 310.48 493.28 312.15C493.28 316.36 492.86 316.19 494.28 319.15C488.91 319.27 489.82 320.52 484.73 321.6C479.06 322.81 476.92 320.55 474.28 324.15C478.86 324.15 495.06 322.33 497.92 320.79L515.57 309.44C537.48 293.34 566.83 267.39 580.97 243.84C590.03 228.76 586.69 235.53 595.21 218.54L599.86 208.73C599.96 208.52 600.08 208.26 600.18 208.05C601.75 204.75 601.44 205.93 602.71 201.58C604.56 195.21 604.8 198.24 607.33 187.31C610.7 172.8 613.67 160.37 613.03 144.7C612.37 128.4 610.35 116.57 605.29 101.14C599.89 84.67 588.51 66.81 576.53 54.9C572.91 51.3 571.11 49.5 567.14 46.29C563.66 43.49 560.59 40.37 556.71 37.72C554.47 36.2 553.25 35.7 551.08 34.35C527.17 19.4 499.25 10.15 470.28 10.15C471.75 12.35 472.08 12.14 473.61 14.82C474.74 16.77 475.35 18.39 476.28 20.15C499.92 20.15 536.86 33.33 555.05 48.38C566.79 58.09 568.65 59.12 578.66 71.84C582.57 76.82 578.9 73.89 583.07 78.3C590.55 86.23 593.3 98.71 594.49 101.24L598.28 109.15C597.34 111.47 598.35 110.02 595.28 112.15C600.86 112.28 598.72 110.91 600.63 119.73C601.62 124.28 602.28 129.14 602.28 134.15Z"/><path fill-rule="evenodd" d="M35.28 217.15L35.58 217.45C35.56 217.43 35.18 217.25 35.28 217.15M24.28 183.15L24.58 183.45C24.56 183.43 24.18 183.25 24.28 183.15M283.28 41.15L282.28 43.15M283.28 41.15L282.28 43.15L283.28 41.15M242.28 24.15L242.58 24.45C242.56 24.43 242.18 24.25 242.28 24.15M220.28 21.15L220.58 21.45C220.56 21.43 220.18 21.25 220.28 21.15M26.28 134.15C26.28 129.29 26.83 125.11 27.74 120.54L28.8 115.12C29.81 111.44 28.72 112.25 33.28 112.15C33.08 112.01 32.72 111.62 32.63 111.8C32.59 111.88 31.21 111.45 30.28 109.15C31.05 108.04 30.42 109.24 31.32 107.19L36.58 93.48C39.31 87.71 41.86 82.17 45.98 77.84C47.18 76.58 46.57 77.45 47.16 76.58C49.05 73.82 51.53 68.72 58.06 61.94L61.17 59.04C79.43 39.97 109.28 26.49 135.26 22.13C147.02 20.15 156.69 19.15 168.32 19.12C170.4 19.11 172.12 19.07 174.15 19.42C178.06 20.1 174.42 20.43 178.06 19.76C188.71 17.8 223.89 26.06 238.53 30.9L265.09 41.34C267.85 42.6 270.51 44.21 273.7 45.73C277.05 47.32 278.6 48.04 281.72 49.78C287.44 52.96 284.98 50.27 289.28 53.15C288.76 51.21 289.1 51.6 288.28 50.15L293.28 46.15C292.1 42.88 292.61 44.44 288.83 42.52C285.54 40.84 286.05 40.01 283.28 41.15C282.42 38.77 283.37 40.35 281.56 38.87L273.56 34.87C262.75 30.04 262.19 29.11 249.66 24.77C226.32 16.67 206.82 11.48 179.28 10.15C165.41 9.48 166.54 8 148.67 10.56C138.35 12.04 132.21 12.7 121.47 15.34C94.69 21.91 65.41 38.35 47.57 59.44C20.21 91.79 8 138.09 19.72 180.79C20.67 184.24 20.59 184.5 21.07 186.65C23.19 196.23 28.4 209.23 33.11 218.03C33.18 218.15 33.32 218.4 33.38 218.52C33.43 218.63 33.56 218.89 33.61 219.01C33.61 219.02 34.08 221.19 34.28 222.15L38.56 216.06C40.75 212.21 40.99 214.36 39.11 209.44C38.09 206.79 36.88 204.86 36.02 202.41L32.19 189.63C32.11 188.01 32.45 190.03 32.2 188.84C32.16 188.66 29.98 184.91 27.87 174.56C27.1 170.75 27.69 169.1 26.28 166.15L26.28 165.15C26.28 158.93 24.4 144.97 25.62 136.6L26.28 134.15Z"/><path fill-rule="evenodd" d="M186.28 473.15L186.58 473.45C186.56 473.43 186.18 473.25 186.28 473.15M181.28 471.15L181.58 471.45C181.56 471.43 181.18 471.25 181.28 471.15M183.28 470.15L183.58 470.45C183.56 470.43 183.18 470.25 183.28 470.15M187.28 469.15L185.33 470.3L187.28 469.15M181.28 467.15L181.58 467.45C181.56 467.43 181.18 467.25 181.28 467.15M183.28 466.15L183.58 466.45C183.56 466.43 183.18 466.25 183.28 466.15M168.28 441.15C169.34 440.09 172.07 442.74 169.39 441.67C169.37 441.66 166.6 442.83 168.28 441.15M166.28 427.15L166.58 427.45C166.56 427.43 166.18 427.25 166.28 427.15M163.28 424.15L163.58 424.45C163.56 424.43 163.18 424.25 163.28 424.15M165.28 415.15C166.44 413.99 170.98 416.84 166.53 415.56C166.41 415.52 163.54 416.89 165.28 415.15M163.28 393.15L163.58 393.45C163.56 393.43 163.18 393.25 163.28 393.15M158.28 377.15C159.34 376.09 162.07 378.74 159.39 377.67C159.37 377.66 156.6 378.83 158.28 377.15M397.28 524.15C396.12 527.37 391.16 529.8 385.98 533.85C380.41 538.22 368.77 544.31 362.15 547.02C329.09 560.52 299.97 560.73 266.41 547.02C259.78 544.31 253.2 541.02 247.41 537.02C245.83 535.92 244.66 535.42 243.14 534.29C241.47 533.06 241.05 532.42 239.28 531.15C236.61 529.22 232.47 527.44 231.28 524.15C227.26 523.08 225.29 519.66 222.53 516.9C219.47 513.84 216.92 511.55 214.1 508.33C213.97 508.17 213.78 507.94 213.64 507.79L210.44 503.99C207.76 500.68 201.15 492.42 200.28 489.15C198.28 486.85 196.18 484.52 195.28 481.15C191.67 477 191.03 471.9 187.28 469.15C187.19 465.17 182.22 455.22 180.32 451.18C178.76 447.84 174.37 434.29 174.28 430.15C171.88 426.7 168.1 410.04 168.17 405.65L164.29 377.07C164.38 374.69 165.16 372.94 165.16 372.88L162.28 359.15C159.07 360.63 158.33 359.1 154.28 358.15C154.28 368.09 156.19 405.3 160.47 415.03C160.58 415.27 160.93 415.84 161 416.03L171.06 453.66C172.83 460.18 176.43 466.29 179.43 472C187.38 487.15 195.47 502.52 208.02 515.41C210.06 517.51 210.59 517.93 212.28 520.15C214.97 523.68 218.09 526.01 221.37 529.06C221.52 529.2 221.73 529.41 221.88 529.55C258.02 563.37 308.93 575.22 357.42 559.29C367.61 555.95 384.17 547.32 392.74 540.61L397.97 536.85C399.8 535.42 401.14 534.34 402.98 532.85L429.14 505.02C431.96 501.23 435.1 498.21 436.28 493.15C422.42 493.15 428.27 491.68 417.66 504.54C417.53 504.7 417.34 504.92 417.21 505.08L416.29 506.16C416.15 506.32 415.97 506.55 415.83 506.7C412.62 510.5 401.41 523.05 397.28 524.15Z"/><path fill-rule="evenodd" d="M461.28 427.15L461.58 427.45C461.56 427.43 461.18 427.25 461.28 427.15M464.28 424.15L464.58 424.45C464.56 424.43 464.18 424.25 464.28 424.15M460.28 415.15L410.28 418.15M460.28 415.15C460.75 414.68 465.95 415.7 462.08 415.69C460.25 415.68 458.83 416.6 460.28 415.15M415.28 406.15L415.58 406.45C415.56 406.43 415.18 406.25 415.28 406.15M464.28 393.15L464.58 393.45C464.56 393.43 464.18 393.25 464.28 393.15M468.28 377.15C469.34 376.09 472.07 378.74 469.39 377.67C469.37 377.66 466.6 378.83 468.28 377.15M463.28 313.15L463.58 313.45C463.56 313.43 463.18 313.25 463.28 313.15M451.28 281.15L451.58 281.45C451.56 281.43 451.18 281.25 451.28 281.15M455.28 270.15C456.34 269.09 459.07 271.74 456.39 270.67C456.37 270.66 453.6 271.83 455.28 270.15M458.28 269.15C459.44 267.99 463.98 270.84 459.53 269.56C459.41 269.52 456.54 270.89 458.28 269.15M455.28 265.15C456.34 264.09 459.07 266.74 456.39 265.67C456.37 265.66 453.6 266.83 455.28 265.15M451.28 252.15C452.34 251.09 455.07 253.74 452.39 252.67C452.37 252.66 449.6 253.83 451.28 252.15M455.28 251.15L455.58 251.45C455.56 251.43 455.18 251.25 455.28 251.15M450.28 246.15C449.18 247.17 452.03 247.15 447.28 247.15C446.25 249.64 446.23 247.89 447.64 250.86C449.31 254.4 449.05 250.63 449.19 254.62C449.4 260.57 452.63 264.51 453.17 266.43L455.28 280.15C450.16 280.15 447.48 280.15 445.28 283.15C454.1 285.02 455.52 278.59 457.28 286.15C453.65 286.15 452.42 286.33 450.07 286.95C444.37 288.43 445.01 288.35 444.28 290.15C445.74 289.45 455.1 287.33 457.28 287.15C457.83 289.51 458.21 290.1 458.28 293.15L459.28 294.15C459.28 297.56 461.29 310.09 462.28 312.15L460.28 313.15L462.28 313.15C462.28 314.94 462.51 316.41 462.57 317.94C462.58 318.26 462.63 319.15 462.62 319.41C462.53 321.42 463.11 319.72 462.28 321.15C463.77 324.26 463.16 325.6 463.54 329.9C463.81 332.97 463.95 333.23 464.28 337.15L464.28 339.15C464.28 347.38 466.44 354.05 464.89 364.77C464.73 365.86 464.08 369.38 463.78 370.73C463.74 370.92 463.63 371.2 463.6 371.37L463.86 374.57C464.89 379.68 461.89 397.06 460.48 403.95L460.47 406.73C460.2 415.26 455.91 422.62 455.28 430.15C452.71 428.92 447.79 427.44 444.28 427.15C449.06 434.28 455.33 425.74 453.86 434.48C453.38 437.33 452.36 439.18 451.51 441.28L449.95 446.75C443.39 468.65 413.43 467.23 409.6 444.75C408.63 439.05 411.1 434.94 412.66 430.53C414.13 426.37 415.76 419.32 417.28 416.15C422.15 417.29 429.79 420.03 435.28 420.15L430.18 417.25C416.55 412.32 416.47 421.01 421.11 397.5C422.18 392.09 423.92 393.63 413.28 391.15C411.4 395.06 411.76 397.83 410.63 403.02C409.65 407.57 407.67 412.46 407.28 417.15C412.57 417.15 408.77 417.16 410.28 418.15L406.28 418.15C407.22 420.76 407.32 419.66 407.08 420.74L405.45 423.8C402.32 430.97 397.95 438.01 400.87 449.56C407.86 477.22 450.78 483.5 459.98 446.01C461.1 441.45 462.89 438.31 464.99 429.01L467.59 419.56C467.98 414.73 466.51 418.63 467.79 415.57L470.58 404.74C473.57 384.25 475.73 348.99 473.27 325.12C472.36 316.3 470.79 324.76 471.8 317.79C472.55 312.71 467.05 283.85 465.28 280.15C468.04 279.51 467.53 279.67 469.28 278.15C463.22 278.02 466.35 278.8 465.28 276.15L464.55 274.89C460.03 264.79 465.92 265.32 458.28 265.15C458.48 265.01 458.84 264.62 458.92 264.8C458.96 264.88 460.35 264.45 461.28 262.15L459.84 258.59C459.25 256.82 458.79 255.27 458.4 254.03C457.51 251.25 456.54 248.32 456.28 245.15L453.28 245.15C452.18 246.17 455.03 246.15 450.28 246.15Z"/><path fill-rule="evenodd" d="M81.28 188.15L79.33 189.3L81.28 188.15M73.28 181.15L73.58 181.45C73.56 181.43 73.18 181.25 73.28 181.15M74.28 177.15L74.58 177.45C74.56 177.43 74.18 177.25 74.28 177.15M78.28 176.15L76.33 177.3L78.28 176.15M71.28 171.15C72.34 170.09 75.07 172.74 72.39 171.67C72.37 171.66 69.6 172.83 71.28 171.15M70.28 165.15C71.44 163.99 75.98 166.84 71.53 165.56C71.41 165.52 68.54 166.89 70.28 165.15M83.28 104.15L82.28 103.15L83.28 104.15M82.28 103.15L80.28 102.15L82.28 103.15M80.28 102.15L79.28 101.15L80.28 102.15M89.28 97.15L88.28 96.15L89.28 97.15M88.28 96.15L87.28 95.15L88.28 96.15M87.28 95.15L86.28 94.15L87.28 95.15M86.28 94.15L85.28 93.15L86.28 94.15M93.28 92.15L92.28 91.15L93.28 92.15M92.28 91.15L91.28 90.15L92.28 91.15M91.28 90.15L90.28 89.15L91.28 90.15M90.28 89.15L89.28 88.15L90.28 89.15M96.28 84.15L95.28 83.15L96.28 84.15M106.28 82.15L105.28 81.15L106.28 82.15M104.28 79.15L105.28 81.15L104.28 79.15L103.28 78.15L104.28 79.15M119.28 73.15L119.58 73.45C119.56 73.43 119.18 73.25 119.28 73.15M129.28 72.15C129.28 69.59 130.86 71.99 129.87 72.15C129.86 72.15 129.28 74.94 129.28 72.15M140.28 71.15L139.13 69.2L140.28 71.15M133.28 70.15L133.58 70.45C133.56 70.43 133.18 70.25 133.28 70.15M182.28 64.15C183.47 66.02 183.4 61.92 183.1 66.15C182.95 68.29 182.98 67.04 182.28 68.15L182.28 64.15M153.28 62.15L153.58 62.45C153.56 62.43 153.18 62.25 153.28 62.15M103.28 78.15C100.06 76.82 102.97 76.66 99.39 79.15C97.6 80.4 96.46 81.39 95.28 83.15C91.69 85.05 91.57 84.73 89.28 88.15C86.73 89.86 86.16 89.86 85.28 93.15C82.52 95 80.25 97.52 79.28 101.15C77.99 102.1 76.42 103.89 75.52 105.56C73.67 108.97 73.97 108.96 76.28 111.15L72.28 111.15C71.84 113.02 71.66 113.76 70.93 115.8C69.64 119.41 68.03 120.96 68.11 125.14C68.16 127.97 64.63 137.11 65.25 151.11C65.39 154.27 66.14 158.75 66.64 162.29L68.29 170.13C69.58 176.29 74.17 186.36 74.28 191.15L85.28 191.15C84.32 187.55 85.19 188.48 81.28 188.15L83.23 187C82.87 182.23 82.85 184.9 80.79 182.03C79.72 180.54 82.51 179.25 78.28 176.15C79.18 174.32 79.04 174.9 79.28 172.15C76.62 170.88 78.21 171.24 74.28 171.15C75.5 170.23 73.15 170.5 77.28 170.15L77.28 165.15C69.8 164.5 76.05 166.6 75.81 160.69C75.68 157.47 75.28 153.97 75.28 150.15L72.28 150.15C73.5 149.23 71.16 149.5 75.28 149.15L75.28 135.15C71.89 134.11 74.41 135.91 76.09 132.17C77.39 129.26 76.4 129.63 77.27 126.15C78.04 123.07 78.59 123.15 79.41 120.22C79.95 118.29 79.63 118.74 79.9 117.31L87.54 104.42C93.25 96.49 97.38 92.44 105.04 86.91L108.53 84.4C114.22 80.58 127.73 74.5 134.43 72.85C136.39 72.36 134.63 72.96 136.85 72.43L140.28 71.15C146.42 71.15 163.95 67.44 181.14 69.29C184.64 69.67 190.64 70.85 194.28 71.15C194.28 65.83 195.18 65.56 195.28 61.15C165.73 61.15 174.14 55.36 133.55 63.42C130.97 63.94 127.65 65.21 125.11 65.98C119.87 67.58 119.41 66.36 119.28 72.15L116.28 69.15C116.1 69.31 115.8 69.29 115.72 69.59L113.3 71.17C107.61 74.34 104.44 73.81 103.28 78.15Z"/><path fill-rule="evenodd" d="M443.28 227.15L441.33 228.3L443.28 227.15M445.28 226.15L443.28 227.15L445.28 226.15M447.28 225.15L445.28 226.15L447.28 225.15M429.28 200.15L386.28 215.15M429.28 200.15L429.58 200.45C429.56 200.43 429.18 200.25 429.28 200.15M431.28 199.15L431.58 199.45C431.56 199.43 431.18 199.25 431.28 199.15M433.28 198.15L433.58 198.45C433.56 198.43 433.18 198.25 433.28 198.15M426.28 194.15L426.58 194.45C426.56 194.43 426.18 194.25 426.28 194.15M421.28 178.15L421.58 178.45C421.56 178.43 421.18 178.25 421.28 178.15M384.28 223.15L424.28 177.15M384.28 223.15L386.28 222.15L388.28 221.15L390.28 220.15C390.05 217.45 389.81 217.43 389.28 215.15L386.28 215.15C389.43 208.59 381.47 211.29 391.59 206.48C395.04 204.84 399.47 201.86 401.28 199.15L384.28 207.15C382.01 202.87 381.3 202.8 381.28 199.79C381.26 198.14 383.71 199.46 379.86 197.55C376.94 196.11 377.24 195.35 374.44 190.99C363.65 174.22 381.48 153.59 399.92 161.51C404.08 163.29 406.19 165.36 408.52 168.91C411.35 173.24 412.2 176.9 415.28 179.15C412.88 182.42 413.54 179.87 411.28 184.15C414.68 183.87 414.94 183.39 417.28 182.15C416.79 188.09 416.25 184.09 413.28 188.15C416.38 187.43 416.18 186.87 419.28 186.15C419.84 188.56 424.08 196.09 425.68 198.83L428.16 203.57C429.12 206.02 430.15 208.12 431.15 210.27C432.44 213.04 433.02 213.67 434.15 216.28L439.65 228.94C440.5 231.55 440.04 232.98 443.28 234.15C441.17 237.03 442.92 234.82 440.42 236.29C440.16 236.44 439.35 236.83 439.1 236.97C437.31 238.02 438.51 237.08 437.28 238.15L443.25 237C443.61 241.08 444.76 245.31 447.28 247.15C448.38 246.13 445.53 246.15 450.28 246.15C451.38 245.13 448.53 245.15 453.28 245.15L455.23 244L448.94 227.49C447.8 225.45 448.23 226.25 447.28 225.15C448.22 222.87 448.28 224.69 445.92 219.59L424.28 177.15C419.55 168.21 415.43 159.9 407.5 154.93C383.33 139.77 360.33 162.42 361.39 181.02C361.68 186.14 364.11 192.57 366.31 196.12C367.61 198.22 369.01 199.56 370.68 201.79C370.81 201.97 370.99 202.21 371.11 202.39C373.93 206.32 372 204.96 374.32 205.96L375.28 206.15C373.92 208.98 374.55 209.03 375.28 212.15C379.67 211.13 379.46 209.55 384.28 209.15L377.3 213.19C378.59 218.77 380.78 217.1 381.28 223.15L384.28 223.15Z"/><path fill-rule="evenodd" d="M547.28 188.15L549.43 188.7L547.28 188.15M554.28 181.15L554.58 181.45C554.56 181.43 554.18 181.25 554.28 181.15M553.28 177.15L553.58 177.45C553.56 177.43 553.18 177.25 553.28 177.15M550.28 176.15L552.43 176.7L550.28 176.15M555.28 171.15C556.34 170.09 559.07 172.74 556.39 171.67C556.37 171.66 553.6 172.83 555.28 171.15M555.28 165.15C556.44 163.99 560.98 166.84 556.53 165.56C556.41 165.52 553.54 166.89 555.28 165.15M546.28 103.15L545.28 104.15M546.28 103.15L545.28 104.15L546.28 103.15M548.28 102.15L546.28 103.15L548.28 102.15M549.28 101.15L548.28 102.15L549.28 101.15M540.28 96.15L539.28 97.15M540.28 96.15L539.28 97.15L540.28 96.15M541.28 95.15L540.28 96.15L541.28 95.15M542.28 94.15L541.28 95.15L542.28 94.15M543.28 93.15L542.28 94.15L543.28 93.15M536.28 91.15L535.28 92.15M536.28 91.15L535.28 92.15L536.28 91.15M537.28 90.15L536.28 91.15L537.28 90.15M538.28 89.15L537.28 90.15L538.28 89.15M539.28 88.15L538.28 89.15L539.28 88.15M533.28 83.15L532.28 84.15M533.28 83.15L532.28 84.15L533.28 83.15M523.28 81.15L522.28 82.15M523.28 81.15L522.28 82.15L523.28 81.15M524.28 79.15L523.28 81.15L524.28 79.15M525.28 78.15L524.28 79.15L525.28 78.15M508.28 73.15L508.58 73.45C508.56 73.43 508.18 73.25 508.28 73.15M498.28 72.15C498.28 69.59 499.86 71.99 498.87 72.15C498.86 72.15 498.28 74.94 498.28 72.15M494.28 70.15L494.58 70.45C494.56 70.43 494.18 70.25 494.28 70.15M488.28 71.15L488.83 69L488.28 71.15C490.62 72.64 507.67 75.38 522.37 86.06C526.24 88.86 528.06 90.83 531.72 93.71C535.21 96.45 540.61 103.39 542.99 107.44C548.59 117 549.43 116.1 551.83 130.15L554.04 134.35C554.18 134.47 554.53 134.67 554.65 134.76C554.77 134.86 555.08 135.01 555.28 135.15L553.28 149.15C558.57 149.15 554.77 149.16 556.28 150.15L553.28 150.15L553.04 163.54C553.09 164.62 557.43 164.61 551.28 165.15L551.28 170.15C556.57 170.15 552.77 170.16 554.28 171.15C550.35 171.24 551.93 170.88 549.28 172.15C549.54 175.25 549.27 174.04 550.28 176.15C545.73 179.49 549.35 179.92 547.41 182.38C544.87 185.6 545.63 182.89 545.28 187.15L547.28 188.15C542.77 188.53 542.03 190.12 543.28 193.15L545.28 194.15L547.28 195.15L549.28 196.15C552.02 195.16 550.7 196.33 552.79 192.67C554.56 189.57 553.58 191.08 554.78 187.65C560.77 170.46 566.43 147.92 561.81 130.51C561.78 130.41 561.14 128.74 561 128.36L560.33 126.1C560.2 117.09 558.72 121.63 556.28 111.15L552.28 111.15C554.5 109.04 554.76 109.34 553.4 106.22C552.75 104.73 550.56 102.09 549.28 101.15C548.31 97.52 546.04 95 543.28 93.15C542.4 89.86 541.83 89.86 539.28 88.15C536.99 84.73 536.87 85.05 533.28 83.15C531.65 80.71 532.27 81.53 529.74 79.59C526.25 76.93 527.89 77.07 525.28 78.15C523.85 72.8 517.91 74.04 512.28 69.15C509.93 70.1 511.83 68.89 510.48 70.35L509.28 72.15C509.17 67.27 508.87 66.89 496.65 63.78C490.33 62.17 484.32 61.56 478.28 60.15C476.45 63.61 475.42 65.95 473.28 69.15L488.28 71.15Z"/><path fill-rule="evenodd" d="M289.28 511.15L339.28 511.15L289.28 511.15M358.28 501.15L289.28 511.15M358.28 501.15L358.58 501.45C358.56 501.43 358.18 501.25 358.28 501.15M269.28 501.15L269.58 501.45C269.56 501.43 269.18 501.25 269.28 501.15M357.28 499.15L357.58 499.45C357.56 499.43 357.18 499.25 357.28 499.15M270.28 499.15L270.58 499.45C270.56 499.43 270.18 499.25 270.28 499.15M289.28 511.15C290.46 514.4 292.88 514.63 299.95 515.63C315.82 517.89 312.57 517.71 328 515.71L336.87 513.75C339.1 512.61 338.43 513.49 339.28 511.15C342.02 512.47 342.67 512.22 345.82 510.77C346.04 510.67 346.29 510.53 346.5 510.43C354.92 506.36 357.63 504.27 365.28 499.15C363.73 496.83 361.93 494.62 360.28 492.15C356.8 493.08 352.25 496.6 348.72 498.59C346.05 500.1 345.39 500.2 342.52 501.46C337.4 503.69 338.5 502.48 339.28 506.15C333.16 502.06 334.1 507.16 314.28 507.16C308.74 507.16 304.62 507 300.24 506.18C293.34 504.89 294.31 502.78 289.28 506.15C290.03 502.61 290.35 503.45 286.76 501.76C284.1 500.51 282.86 500.26 280.47 498.96C276.87 496.99 271.92 493.12 268.28 492.15C266.63 494.62 264.83 496.83 263.28 499.15C270.93 504.27 273.63 506.36 282.06 510.43C285.06 511.88 285.9 512.77 289.28 511.15Z"/><path fill-rule="evenodd" d="M252.28 314.15L252.28 310.15C253.47 312.02 253.4 307.92 253.1 312.15C252.95 314.29 252.98 313.04 252.28 314.15M244.28 309.15C243.92 307.26 245.54 305.59 244.91 308.52C244.9 308.59 244.94 312.64 244.28 309.15M231.28 302.15C231.28 302.71 231.3 303.78 231.21 304.08C230.69 305.9 230.94 305.15 230.28 306.15C230.68 310.96 233.02 310.71 238.28 311.15C238.28 305.86 238.29 309.66 239.28 308.15C239.42 314.57 237.45 310.36 242.02 312.47L244.65 313.23C244.8 313.27 245.08 313.32 245.23 313.35L252.28 314.15C252.49 314.29 252.87 314.15 252.99 314.44C253.98 316.85 295.05 320.06 299.28 320.15L299.28 310.15C281.63 310.15 261 305.58 254.94 305.88C252.12 306.01 255.65 306.7 252.96 305.38L232.28 300.15L231.28 302.15Z"/><path fill-rule="evenodd" d="M145.28 268.15L144.28 270.15L145.28 268.15M146.28 267.15L145.28 268.15L146.28 267.15M147.28 264.15L146.28 267.15M147.28 264.15L147.58 264.45C147.56 264.43 147.18 264.25 147.28 264.15M133.28 262.15C137.24 265.59 139.35 267.54 144.28 270.15C145.1 270.87 145.34 271.1 146.49 271.94L168.28 285.15C165.87 288.75 162.74 291.58 162.28 297.15C164.82 295.29 167.63 289.27 169.28 286.15C174.13 287.28 180.07 293.1 184.28 291.15L185.28 289.15L186.28 287.15L187.28 285.15C185.83 281.55 175.15 278.01 171.28 276.15C173.42 272.95 172.92 275.45 173.28 271.15C169.74 272.58 172.52 270.48 170.28 275.15L146.7 260.73C143.8 258.59 142.39 256.49 138.28 256.15C137.41 259.42 135.77 260.48 133.28 262.15Z"/><path fill-rule="evenodd" d="M417.28 293.15L415.99 293.97C415.59 294.15 413.97 294.79 413.86 294.81C409.64 295.5 411.25 294.77 410.28 294.15C414.16 293.83 412.88 293.25 417.28 293.15C417.05 290.45 416.81 290.43 416.28 288.15L418.28 287.15C416.34 286.64 416.73 286.97 415.28 286.15C416.51 282.85 414.61 285.68 417.28 283.15C412.79 281.95 414.32 279.98 413.42 276.72C412.5 273.42 411.13 270.78 410.28 267.15C407.41 267.82 403.66 269.01 401.28 270.15L406.38 287.05C406.81 288.77 406.86 289.46 407.2 291.23C407.61 293.46 407.64 293.96 408 295.43L409.28 299.15C408.1 302.32 411.45 300.59 406.28 301.15L406.28 303.15C409.47 302.47 407.84 302.14 410.28 303.15C410.28 310.03 412.28 313.78 412.28 320.15C417.59 320.15 418.33 319.48 422.28 319.15C421.91 314.78 420.27 305.4 419.28 301.15C421.8 300.56 425.23 300.14 427.28 299.15C424.34 295.15 424.02 298.02 418.28 298.15C418.69 293.18 419.22 294.15 424.28 294.15C422.84 288.77 423.36 292.65 417.28 293.15Z"/><path fill-rule="evenodd" d="M412.28 322.15C413.15 323.97 414.03 331.68 414.23 334.21L414.33 346.4C414.22 348.9 415.33 348.73 415.3 357.14C415.29 363.21 414.38 366.66 414.28 371.15L424.28 371.15C424.26 370.09 423.98 368.25 423.97 367.7L424.28 348.15L427.99 348.03C428.09 348.26 428.55 347.95 428.7 347.94C433 347.66 438.87 348.12 442.28 345.15C438.96 345.15 435.62 345.06 432.3 345.24L424.28 345.15C424.28 335.61 422.95 329.27 422.28 321.15C416.97 321.15 416.35 321.73 412.28 322.15Z"/><path fill-rule="evenodd" d="M241.28 469.15L242.28 474.15M241.28 469.15L239.28 470.15L241.28 469.15M236.28 465.15L241.28 469.15L236.28 465.15M237.28 464.15L236.28 465.15M237.28 464.15L236.28 465.15L237.28 464.15M233.28 462.15L237.28 464.15M233.28 462.15L233.58 462.45C233.56 462.43 233.18 462.25 233.28 462.15M229.28 452.15L236.28 461.15L229.28 452.15M231.28 451.15L229.28 452.15M231.28 451.15L229.28 452.15L231.28 451.15M233.28 450.15L231.28 451.15L233.28 450.15M228.28 449.15L226.28 450.15L228.28 449.15L230.23 448L228.28 449.15M225.28 443.15L224.28 447.15M225.28 443.15L223.28 444.15L225.28 443.15L227.23 442L225.28 443.15M228.28 441.15L228.58 441.45C228.56 441.43 228.18 441.25 228.28 441.15M224.28 438.15L222.28 439.15L220.33 440.3C220.6 444.06 219.67 443.19 223.28 444.15C222.46 445.6 222.79 445.21 222.28 447.15L224.28 447.15C223.17 449.84 222.4 449.11 226.28 450.15C224.4 454.06 224.97 452.27 226.74 455.58L232.83 465.6C232.95 465.78 233.11 466.02 233.23 466.2C233.35 466.38 233.51 466.62 233.63 466.8L236.28 471.15C237.63 470.39 237.38 470.6 239.28 470.15L237.13 473.03C241.64 476.07 242.42 481.23 248.28 485.15L249.28 484.15L250.28 483.15L251.28 482.15L252.28 481.15L253.28 480.15L254.28 479.15C246.85 468.06 245.41 469.08 236.68 453.75C234.41 449.76 236.38 451.27 233.28 450.15C234.2 447.92 231.34 442.48 230.22 440.21C228.24 436.18 230.47 438.31 227.28 437.15C226.18 438.17 229.03 438.15 224.28 438.15Z"/><path fill-rule="evenodd" d="M234.28 79.15L233.28 81.15L234.28 79.15L234.83 77L234.28 79.15M235.28 75.15C235.28 72.59 236.86 74.99 235.87 75.15C235.86 75.15 235.28 77.94 235.28 75.15M225.28 75.15C225.28 72.59 226.86 74.99 225.87 75.15C225.86 75.15 225.28 77.94 225.28 75.15M216.28 75.15C216.28 70.05 216.26 73.49 217.28 72.15C217.28 77.44 217.27 73.64 216.28 75.15M204.28 72.15L204.28 68.15C205.47 70.02 205.4 65.92 205.1 70.15C204.95 72.29 204.98 71.04 204.28 72.15C207.19 74.68 205.83 73.49 210.01 74.5C213.12 75.25 213.88 76.14 216.28 75.15C220.42 78.75 221.93 76.97 224.8 78.18C225.17 78.34 226.22 79.51 228.82 80.67C231.8 82 231.18 82.02 233.28 81.15C235.35 83.98 240 84.58 243.28 86.15L244.28 84.15L245.28 82.15L246.28 80.15L247.28 78.15L226.29 69.14C222.56 67.74 218.67 67.3 214.63 65.79C206.15 62.61 206.83 64.92 205.28 67.15C205.22 64.34 208.09 62.15 196.28 62.15C196.28 67.21 195.6 67.29 195.28 71.15C199.14 71.47 199.22 72.15 204.28 72.15Z"/><path fill-rule="evenodd" d="M220.28 424.15C221.34 423.09 224.07 425.74 221.39 424.67C221.37 424.66 218.6 425.83 220.28 424.15M220.28 421.15L218.33 422.3L220.28 421.15M218.28 418.15L216.33 419.3L218.28 418.15M212.28 406.15L212.58 406.45C212.56 406.43 212.18 406.25 212.28 406.15M209.28 416.15C213.39 417.25 211.98 418.16 213.42 423.01C214.28 425.93 215.51 428.85 216.28 432.15C219.22 431.47 219.33 431.15 223.28 431.15L225.23 430C224.92 425.88 223.63 425.42 223.28 421.15L220.28 421.15C222.98 418.7 221.08 421.38 222.28 418.15L218.28 418.15C219.62 417.14 216.18 417.15 221.28 417.15L217.47 400.61C217.43 400.44 217.37 400.14 217.34 399.98C217.31 399.81 217.24 399.51 217.21 399.34C216.54 395.31 217.11 394.96 215.28 391.15C205.21 393.5 205.73 390.38 208.64 404.25C209.15 406.68 208.42 403.65 209.05 405.92L211.28 415.15L209.28 416.15Z"/><path fill-rule="evenodd" d="M537.28 218.15C533.78 217.22 535.03 217.77 533.28 215.15C536.77 216.08 535.52 215.53 537.28 218.15M543.28 207.15L533.28 215.15L543.28 207.15M540.28 205.15L543.28 207.15M540.28 205.15C540.38 205.05 540.58 205.31 540.58 205.45L540.28 205.15M537.28 218.15C539.3 216.8 540.05 215.58 541.56 213.38C543.36 210.76 544.57 209.95 543.28 207.15C546.59 206.27 546.47 206.01 548.05 202.87C549.57 199.85 550.18 198.34 549.28 196.15L547.28 195.15L545.28 194.15L543.28 193.15C540.12 194.3 540.17 197.4 535.71 204.58L528.28 216.15C529.98 218.47 532.97 220.38 536.28 221.15C537.04 219.8 536.83 220.05 537.28 218.15Z"/><path fill-rule="evenodd" d="M300.28 145.15L299.28 144.15L300.28 145.15M299.28 144.15L298.28 143.15L299.28 144.15M303.28 142.15L298.28 143.15M303.28 142.15L302.28 141.15L303.28 142.15M302.28 141.15L301.28 140.15L302.28 141.15M306.28 139.15L301.28 140.15M306.28 139.15L305.28 138.15L306.28 139.15M305.28 138.15L304.28 137.15L305.28 138.15M300.28 145.15L304.28 137.15M300.28 145.15C303.29 144.35 302.47 145.16 303.28 142.15C306.29 141.35 305.47 142.16 306.28 139.15C309.17 138.38 307.92 138.82 310.24 137.11C312.03 135.78 312.58 135.77 313.28 133.15L312.28 132.15L311.28 131.15L310.28 130.15L309.28 129.15L308.28 128.15C303.69 128.53 302.41 131.52 297.03 136.9C293.55 140.38 289.91 143.22 287.28 147.15L295.28 153.15C296.82 150.84 299.57 147.8 300.28 145.15Z"/><path fill-rule="evenodd" d="M201.28 300.15C203.5 300.67 210.28 303.19 212.28 304.15C211.16 306.49 209.54 310.98 209.28 314.15C211.27 311.86 213.02 307.31 213.28 304.15C215.74 305.33 217.61 306.07 221.28 306.15C221.63 301.88 222.92 301.42 223.28 297.15C220.35 296.91 217.29 295.5 213.92 294.51C210.19 293.41 208.15 292.67 205.28 291.15C203.78 293.99 202.08 296.72 201.28 300.15Z"/><path fill-rule="evenodd" d="M376.28 314.15C375.09 312.28 375.15 316.38 375.45 312.15C375.61 310.02 375.58 311.26 376.28 310.15L376.28 314.15M383.28 309.15C382.92 307.26 384.54 305.59 383.91 308.52C383.9 308.59 383.94 312.64 383.28 309.15M376.28 314.15C378.71 314.1 380.88 313.78 382.71 313.43L385 312.77C387.09 312.25 386.36 312.15 389.28 312.15C389.28 307.94 389.7 308.11 388.28 305.15C392.48 305.06 394.79 304.31 397.28 302.15C393.86 302.15 380.29 303.33 376.72 304.73C371.79 306.67 378.55 305.3 368.28 306.15C370.53 309.51 372.18 311.18 374.28 315.15L376.28 314.15Z"/><path fill-rule="evenodd" d="M373.28 87.15L374.28 89.15L373.28 87.15M364.28 87.15L373.28 87.15M364.28 87.15L365.28 89.15C367.43 90.65 366.6 89.3 367.28 92.15L368.43 94.1C372.14 93.25 373.28 92.89 374.28 89.15C379.4 91.61 375.44 89.21 384.28 87.15L384.28 84.15L383.28 82.15L382.28 80.15L381.28 78.15C377.89 78.94 374.94 80.08 371.78 81.65C370.58 82.25 369.1 83.03 367.86 83.74C363.9 86.01 365.39 84.08 364.28 87.15Z"/><path fill-rule="evenodd" d="M347.28 95.15C347.93 97.58 350.05 100.83 351.28 103.15C353.87 102.94 362.01 98.24 364.56 96.44C368.57 93.62 366.77 96.8 367.28 92.15C365.13 90.66 365.96 92 365.28 89.15L364.28 87.15C360.73 85.69 364.07 86.1 360.85 87.65C359.19 88.44 357.76 89.36 356.27 90.14C353.16 91.76 350.55 94.28 347.28 95.15Z"/><path fill-rule="evenodd" d="M418.28 381.15L418.58 381.45C418.56 381.43 418.18 381.25 418.28 381.15M414.28 377.15C414.84 377.15 415.91 377.13 416.21 377.22C417.98 377.73 417.32 377.54 418.28 378.15L414.28 378.15C413.86 383.23 413.08 379.89 413.94 385.42C414.6 389.69 413.45 385.78 412.28 390.15C416.69 390.25 416.95 391.15 422.28 391.15L423.28 381.2C424.33 371.66 426.94 372.15 414.28 372.15L414.28 377.15Z"/><path fill-rule="evenodd" d="M391.28 361.15L390.13 359.2L391.28 361.15M382.28 354.15C376.34 354.65 378.27 357.61 374.28 365.15C377.76 365.07 388.51 363.56 391.28 361.15C394.31 362.85 392.4 361.69 393.28 361.15C393.28 356.88 394.35 352.02 391.53 351.73C389.24 351.5 390.74 352.2 387.22 352.97L382.28 354.15Z"/><path fill-rule="evenodd" d="M375.28 113.15C373.52 116.48 374.55 116.16 370.28 117.15C371.9 123.22 377.75 124.44 379.28 130.15C382.44 129.42 386.12 128.89 389.28 128.15C388.11 123.14 385.57 122.04 382.24 118.19C379.44 114.94 379.91 114.23 375.28 113.15Z"/><path fill-rule="evenodd" d="M317.28 120.15L318.28 121.15C320.9 122.91 320.35 121.66 321.28 125.15C324.85 124.85 325.84 123.39 328.43 121.3C329.51 120.43 330.67 119.61 331.77 118.64C334.09 116.57 333.4 118.44 334.28 115.15C331.66 113.4 332.21 114.65 331.28 111.15L330.28 110.15C328.83 109.33 329.22 109.67 327.28 109.15C324.05 113.97 321.5 114.19 319.36 116.23C316.6 118.88 317.82 115.22 317.28 120.15Z"/><path fill-rule="evenodd" d="M264.28 184.15C267.13 184.83 265.78 184 267.28 186.15C269.72 185.27 275.74 176.45 277.28 174.15C275.15 171.24 273.81 171.93 271.28 168.15C268.97 168.99 269.89 168.8 268.4 170.27L261.28 180.15L264.28 184.15Z"/><path fill-rule="evenodd" d="M374.28 479.15L386.28 474.15M374.28 479.15L375.28 480.15L376.28 481.15L377.28 482.15L378.28 483.15L379.28 484.15L380.28 485.15C384.51 482.32 386.84 478.75 389.28 474.15C387.86 471.48 386.64 468.88 384.28 467.15C381.99 468.69 376.02 476.55 374.28 479.15Z"/><path fill-rule="evenodd" d="M209.28 381.15L209.58 381.45C209.56 381.43 209.18 381.25 209.28 381.15M206.28 391.15C211.6 391.15 211.87 390.25 216.28 390.15C214.68 384.17 213.62 391.88 214.62 385.42C215.48 379.89 214.7 383.23 214.28 378.15C206.39 378.15 210.25 377.48 205.28 376.15C205.28 384.35 206.15 385.32 206.28 391.15Z"/><path fill-rule="evenodd" d="M281.28 162.15C284.99 163.14 282.57 163.16 286.28 164.15C287.19 160.73 288.75 160.41 292.28 155.15L286.51 148.92C283.01 151.34 280.48 154.87 278.28 158.15L281.28 162.15Z"/><path fill-rule="evenodd" d="M310.28 121.15C310.79 123.09 310.46 122.7 311.28 124.15C307.72 125.1 307.08 125.25 308.28 128.15L309.28 129.15L310.28 130.15L311.28 131.15L312.28 132.15L313.28 133.15C316.91 132.18 320.31 128.78 321.28 125.15C318.66 123.4 319.21 124.65 318.28 121.15L317.28 120.15C312.13 118.02 317.39 122.66 310.28 121.15Z"/><path fill-rule="evenodd" d="M395.28 252.15L398.42 262.1C403.49 262.04 403.59 260.54 408.28 260.15C406.59 256.95 405.2 253.12 404.28 249.15C401.42 249.82 397.66 251.01 395.28 252.15Z"/><path fill-rule="evenodd" d="M388.28 221.15L386.28 222.15L384.28 223.15C383.02 225.78 383.19 226.01 384.47 228.87C384.49 228.92 385.93 231.45 385.95 231.47C387.45 233.22 385.94 232.3 388.28 233.15L390.28 232.15L392.28 231.15L394.28 230.15C395.08 228.22 394.98 227.9 393.68 224.84C392.48 222.01 392.31 221.64 390.28 220.15L388.28 221.15Z"/><path fill-rule="evenodd" d="M495.28 262.15C492.79 260.48 491.15 259.42 490.28 256.15C485.59 256.54 489.48 255.87 483.28 259.15C483.28 263.87 483.1 263.62 482.28 267.15C485.24 267.94 483.9 267.56 486.28 269.15C487.89 268.08 489.33 267.23 490.99 265.87C491.97 265.06 492.21 264.78 493.12 263.99C493.27 263.85 493.51 263.66 493.66 263.53L495.28 262.15Z"/><path fill-rule="evenodd" d="M129.28 250.15L128.28 251.15L127.28 252.15L126.28 253.15L125.28 254.15L124.28 255.15C125.49 256.81 126.78 257.49 128.54 258.89C129.96 260.03 128.83 259.35 130.74 260.69C132.26 261.77 131.26 261.42 133.28 262.15C134.34 258.19 136.22 258.11 137.28 254.15C135.64 251.71 133.51 250.01 130.28 249.15L129.28 250.15Z"/><path fill-rule="evenodd" d="M495.28 262.15C497.31 261.42 496.3 261.79 497.82 260.69C499.65 259.39 498.65 259.99 500.02 258.89C501.78 257.49 503.07 256.81 504.28 255.15L503.28 254.15L502.28 253.15L501.28 252.15L500.28 251.15L499.28 250.15L498.28 249.15C495.04 250.01 492.92 251.71 491.28 254.15C492.34 258.11 494.22 258.19 495.28 262.15Z"/><path fill-rule="evenodd" d="M187.28 285.15L186.28 287.15L185.28 289.15L184.28 291.15C185.19 293.67 184.13 292.88 187.89 294.54C189.59 295.28 191.58 295.75 193.28 296.15L194.28 294.15C194.63 289.95 195.42 290.86 196.28 287.15C194.04 286.63 194.03 286.54 191.65 285.67C187.36 284.1 190.42 283.85 187.28 285.15Z"/><path fill-rule="evenodd" d="M271.28 168.15C275.24 169.21 275.32 171.09 279.28 172.15C280.92 169.7 281.79 167.82 284.28 166.15L281.28 162.15C277.62 161.17 279.18 161.1 276.28 159.15C274.93 164.19 272.77 161.77 271.28 168.15Z"/><path fill-rule="evenodd" d="M394.28 236.15L394.58 236.45C394.56 236.43 394.18 236.25 394.28 236.15M392.28 231.15L390.28 232.15L388.28 233.15C386.77 236.8 389.8 236.42 390.28 242.15C395.1 241.75 394.89 240.17 399.28 239.15L399.28 236.15C394.93 235.77 397.74 236.42 396.28 230.15L394.28 230.15L392.28 231.15Z"/><path fill-rule="evenodd" d="M369.28 494.15C371.85 495.59 372.59 493.68 374.28 491.15L373.28 490.15L372.28 489.15L371.28 488.15L370.28 487.15L369.28 486.15L368.28 485.15C366.79 486.14 366.49 486.45 364.83 487.7C362.16 489.69 363.06 488.5 361.28 491.15C363.01 493.74 364.83 496.23 368.28 497.15C369.04 495.8 368.83 496.05 369.28 494.15Z"/><path fill-rule="evenodd" d="M175.28 245.15C180.03 245.15 177.18 245.13 178.28 246.15C183.03 246.15 180.18 246.13 181.28 247.15C184.58 244.73 182.4 246.06 184.28 242.15C182.57 239.6 179.57 234.83 177.28 233.15C175.66 236.53 174.9 240.78 173.28 244.15L175.28 245.15Z"/><path fill-rule="evenodd" d="M522.28 225.15L523.28 226.15L524.28 227.15L525.28 228.15C528.24 228.94 526.9 228.56 529.28 230.15C531.15 227.36 533.28 225.9 534.28 222.15C529.74 220.94 531.97 219.48 526.28 218.15C524.72 220.47 523.1 222.09 522.28 225.15Z"/><path fill-rule="evenodd" d="M337.28 103.15C333.78 104.08 335.03 103.53 333.28 106.15L334.28 107.15C336.43 108.65 335.6 107.3 336.28 110.15C338.66 111.74 337.32 111.36 340.28 112.15C343.18 110.21 341.62 110.13 345.28 109.15C345.04 106.24 344.83 105.94 343.56 103.87C342.49 102.13 341.73 101.21 340.28 100.15L337.28 103.15Z"/><path fill-rule="evenodd" d="M259.28 486.15L259.28 494.15M259.28 486.15L258.28 487.15L257.28 488.15L256.28 489.15L255.28 490.15L254.28 491.15C256.22 494.05 256.49 495.35 259.28 494.15C259.79 496.09 259.46 495.7 260.28 497.15C263.72 496.23 265.55 493.74 267.28 491.15L260.28 485.15L259.28 486.15Z"/><path fill-rule="evenodd" d="M336.05 154.92C338.66 158.7 339.64 160.72 343.28 163.15C344.08 159.72 345.78 156.99 347.28 154.15L342.51 148.92L336.05 154.92Z"/><path fill-rule="evenodd" d="M502.28 245.15L503.28 246.15L504.28 247.15L505.28 248.15L506.28 249.15L507.28 250.15L508.28 251.15L511.49 248.37L506.08 242.34C511.49 243.54 509.06 245.76 514.28 247.15C514.97 244.55 513.91 246.04 516.28 245.15L509.51 237.92L502.28 245.15Z"/><path fill-rule="evenodd" d="M391.28 244.15L392.75 246.68C395.71 251.96 392.62 250.63 403.28 248.15C402.47 244.66 401.75 242.93 400.28 240.15C396.85 240.95 394.12 242.65 391.28 244.15Z"/><path fill-rule="evenodd" d="M523.28 236.15L522.28 235.15L521.28 234.15L520.28 233.15L519.28 232.15L518.28 231.15L517.28 230.15C514.69 231.88 512.2 233.71 511.28 237.15C516.49 238.54 514.06 240.76 519.28 242.15C520.29 238.37 521.21 239.24 523.28 236.15Z"/><path fill-rule="evenodd" d="M368.28 485.15L369.28 486.15L370.28 487.15L371.28 488.15L372.28 489.15L373.28 490.15L374.28 491.15L380.28 485.15L379.28 484.15L378.28 483.15L377.28 482.15L376.28 481.15L375.28 480.15L374.28 479.15L368.28 485.15Z"/><path fill-rule="evenodd" d="M253.28 480.15L252.28 481.15L251.28 482.15L250.28 483.15L249.28 484.15L248.28 485.15L254.28 491.15L255.28 490.15L256.28 489.15L257.28 488.15L258.28 487.15L259.28 486.15L260.28 485.15L254.28 479.15L253.28 480.15Z"/><path fill-rule="evenodd" d="M230.28 306.15C230.28 305.59 230.26 304.52 230.35 304.22C230.87 302.41 230.62 303.15 231.28 302.15C230.76 300.19 231.13 298.72 224.28 298.15C223.92 302.42 222.63 302.88 222.28 307.15L229.23 309.29C229.28 303.86 229.29 307.66 230.28 306.15Z"/><path fill-rule="evenodd" d="M181.28 247.15C176.53 247.15 179.38 247.17 178.28 246.15C173.53 246.15 176.38 246.17 175.28 245.15L172.28 245.15L171.13 251.12C173.56 251.68 173.58 251.93 176.28 252.15C176.69 253.31 176.29 252.41 176.28 253.15C176.26 254.23 175.43 254.23 179.28 255.15C179.31 255.05 179.24 254.76 179.24 254.84C179.24 254.93 179.2 254.56 179.2 254.53C179.42 250.83 182.94 251.18 181.28 247.15Z"/><path fill-rule="evenodd" d="M333.28 139.15C334.27 142.86 334.29 140.44 335.28 144.15C331.99 145.03 331.99 145.6 330.28 148.15C331.46 150.38 331.95 151.16 333.28 153.15L341.28 147.15L333.28 139.15Z"/><path fill-rule="evenodd" d="M517.28 230.15L518.28 231.15L519.28 232.15L520.28 233.15L521.28 234.15L522.28 235.15L523.28 236.15L527.5 232.37C526.49 229.19 526.87 230.53 525.28 228.15L524.28 227.15L523.28 226.15L522.28 225.15C520.04 225.96 520.75 225.75 519.39 227.26C518.42 228.33 518.05 229 517.28 230.15Z"/><path fill-rule="evenodd" d="M222.28 439.15L224.28 438.15C225.38 437.13 222.53 437.15 227.28 437.15C228.48 434.24 228.15 431.56 223.28 431.15C223.08 431.29 222.76 431.24 222.66 431.53C222.56 431.83 222.17 431.83 222.03 431.9L217.28 434.15C219.27 438.29 216.79 438.69 222.28 439.15Z"/><path fill-rule="evenodd" d="M194.28 294.15L193.28 296.15C194.2 296.96 193.1 296.53 195.67 297.76C197.07 298.42 197.88 298.48 199.28 299.15C200.42 296.77 201.61 293.02 202.28 290.15C200.51 289.3 199.04 289 197.28 288.15L194.28 294.15Z"/><path fill-rule="evenodd" d="M217.28 273.15C221 274.02 221.77 275.05 226.28 275.15C226.5 272.45 226.75 272.43 227.28 270.15C224.9 269.01 221.14 267.82 218.28 267.15C217.73 269.51 217.35 270.1 217.28 273.15Z"/><path fill-rule="evenodd" d="M246.28 80.15L245.28 82.15L244.28 84.15L244.28 87.15C249.19 86.74 246.71 85.76 250.28 88.15C249.49 85.19 249.87 86.53 248.28 84.15C252.06 85.16 251.19 86.08 254.28 88.15C252.49 81.47 250.27 87.78 252.28 79.15C249.58 78.93 249.56 78.68 247.28 78.15L246.28 80.15Z"/><path fill-rule="evenodd" d="M218.28 266.15C222.97 266.54 223.07 268.04 228.28 268.15C228.5 265.45 228.75 265.43 229.28 263.15C225.1 263.15 222.98 262.45 220.28 261.15C219.19 263.21 218.89 263.52 218.28 266.15Z"/><path fill-rule="evenodd" d="M399.28 263.15C399.81 265.43 400.05 265.45 400.28 268.15C405.49 268.04 405.59 266.54 410.28 266.15C409.67 263.52 409.37 263.21 408.28 261.15C405.58 262.45 403.46 263.15 399.28 263.15Z"/><path fill-rule="evenodd" d="M498.28 249.15L499.28 250.15L500.28 251.15L501.28 252.15L502.28 253.15L503.28 254.15L504.28 255.15L508.28 251.15L507.28 250.15L506.28 249.15L505.28 248.15L504.28 247.15L503.28 246.15L502.28 245.15L498.28 249.15Z"/><path fill-rule="evenodd" d="M125.28 246.15L124.28 247.15L123.28 248.15L122.28 249.15L121.28 250.15L120.28 251.15L124.28 255.15L125.28 254.15L126.28 253.15L127.28 252.15L128.28 251.15L129.28 250.15L130.28 249.15L126.28 245.15L125.28 246.15Z"/><path fill-rule="evenodd" d="M342.4 99.3C343.79 102.01 345.46 103.61 346.28 107.15C349.24 106.36 347.9 106.74 350.28 105.15C349.37 101.27 348.17 99.08 345.28 97.15L342.4 99.3Z"/><path fill-rule="evenodd" d="M220.28 260.15C224.97 260.54 225.07 262.04 230.28 262.15C230.81 259.87 231.05 259.85 231.28 257.15C223.6 257.15 222.41 256.22 220.28 260.15Z"/><path fill-rule="evenodd" d="M330.28 110.15L331.28 111.15C333.9 112.91 333.35 111.66 334.28 115.15L337.28 115.15C337.05 112.45 336.81 112.43 336.28 110.15C334.13 108.66 334.96 110 334.28 107.15L333.28 106.15C329.67 107.11 330.6 106.24 330.28 110.15Z"/><path fill-rule="evenodd" d="M465.28 271.15L465.28 272.15C469.48 272.15 471.51 271.88 474.69 270.56C479.13 268.71 479.77 268.21 481.28 266.15C472.54 266.88 471.63 271.15 465.28 271.15Z"/><path fill-rule="evenodd" d="M216.28 294.15L218.28 294.15C218.71 288.94 221.14 286.19 221.28 280.15C218.87 281.92 216.58 290.53 216.28 294.15Z"/><path fill-rule="evenodd" d="M249.28 330.15C251.45 327.65 252.97 320.82 253.28 317.15C249.82 319.46 249.28 323.32 249.28 330.15Z"/><path fill-rule="evenodd" d="M467.28 275.15C469.51 275.15 471.39 274.7 472.61 274.62C474.76 274.49 474.76 275.07 478.28 275.15C478.98 272.5 478.2 274.33 479.28 272.15C476.13 272.15 475.67 271.97 472.86 272.73C471.55 273.08 470.97 273.29 469.87 273.74L467.28 275.15Z"/><path fill-rule="evenodd" d="M375.28 113.15C374.95 109.21 375.1 110.58 372.68 107.75L368.28 103.15C369.1 106.69 369.27 105.91 370.86 108.57C373.15 112.4 371.12 112.04 375.28 113.15Z"/><path fill-rule="evenodd" d="M408.28 197.15C411.9 196.31 417.93 193.87 419.28 190.15C415.11 192.36 410.8 193.39 408.28 197.15Z"/><path fill-rule="evenodd" d="M347.28 95.15C345.26 92.14 342.13 87.06 339.28 85.15C339.95 88.02 340.87 89.2 342.25 91.18C344 93.7 344.03 94.28 347.28 95.15Z"/><path fill-rule="evenodd" d="M301.28 58.15C300.53 55.35 299.33 54.13 297.69 51.74L293.74 46.69C293.65 46.58 293.43 46.33 293.28 46.15C293.64 50.53 294.27 49.2 296.69 52.74C298.71 55.69 298.47 56.27 301.28 58.15Z"/><path fill-rule="evenodd" d="M453.28 424.15C451.04 421.09 447.03 420.55 442.28 420.15C446 423.39 447.9 422.9 453.28 424.15Z"/><path fill-rule="evenodd" d="M406.28 60.15C406.17 55.45 405.05 52.18 402.28 50.15C403.43 55.08 402.69 55.87 405.31 59.12L406.28 60.15Z"/><path fill-rule="evenodd" d="M427.28 422.15L427.28 420.15C422.77 420.05 422 419.02 418.28 418.15C420.09 420.62 422.76 421.77 427.28 422.15Z"/><path fill-rule="evenodd" d="M246.28 351.15L247.28 351.15C247.28 348.03 248.98 343.69 249.28 340.15C248.65 340.88 248.65 340.53 247.96 341.83C246.2 345.13 246.28 347.34 246.28 351.15Z"/><path fill-rule="evenodd" d="M310.28 121.15C309.36 117.71 306.87 115.88 304.28 114.15C305.1 117.24 304.56 115.56 306.39 118.04C307.81 119.97 307.56 120.42 310.28 121.15Z"/><path fill-rule="evenodd" d="M476.28 328.15C480.99 328.15 480.75 327.97 484.28 327.15C484.07 327.02 483.75 326.59 483.63 326.8C483.51 327.01 483.11 326.53 482.95 326.48L478.28 325.15C478.18 325.42 478.87 326.08 476.28 328.15Z"/><path fill-rule="evenodd" d="M426.28 291.15C427.52 292.86 426.48 292.94 428.74 292.64C432.06 292.19 431.03 291.86 432.28 290.15C429.9 290.15 427.4 289.89 426.28 291.15Z"/><path fill-rule="evenodd" d="M159.28 294.15C162.5 292.98 159.94 295.67 162.35 291.23C163.28 289.52 163.75 288.42 164.28 286.15C161.51 288.18 160.96 290.98 159.28 294.15Z"/><path fill-rule="evenodd" d="M483.28 319.15C488.46 319.15 487.16 320.04 489.28 317.15L483.28 317.15L483.28 319.15Z"/><path fill-rule="evenodd" d="M260.28 94.15C259.41 90.88 257.77 89.82 255.28 88.15C255.96 90.71 257.3 93.07 260.28 94.15Z"/><path fill-rule="evenodd" d="M173.28 271.15C175.81 269.39 176.42 268.81 175.28 266.15C172.75 267.91 172.14 268.49 173.28 271.15Z"/><path fill-rule="evenodd" d="M457.28 334.15C454.88 333.16 454.94 334.15 450.28 334.15L450.28 335.15C453.98 335.15 452.87 335 455.28 336.15C455.47 336.01 455.71 335.48 455.78 335.65L457.28 334.15Z"/><path fill-rule="evenodd" d="M299.28 118.15C300.21 121.62 302.81 124.22 306.28 125.15L299.28 118.15Z"/><path fill-rule="evenodd" d="M428.28 298.15C429.98 298.11 430.31 298.37 431.93 297.8C435.01 296.72 433.5 296.83 434.28 296.15C431.39 296.15 428.71 295.63 428.28 298.15Z"/><path fill-rule="evenodd" d="M106.28 258.15C108.77 256.48 110.41 255.42 111.28 252.15C108.79 253.82 107.15 254.88 106.28 258.15Z"/><path fill-rule="evenodd" d="M452.28 339.15L458.28 339.15C457.53 336.9 458.71 338.38 457.49 337.7L455.93 337.37C454.04 337.43 453.23 337.87 452.28 339.15Z"/><path fill-rule="evenodd" d="M242.28 188.15C244.22 191.05 244.35 191.23 248.28 192.15C246.8 190.13 245.08 188.9 242.28 188.15Z"/><path fill-rule="evenodd" d="M410.28 62.15C410.28 58.9 410.04 57.58 409.19 55.24L408.63 59.79C409.86 62.42 409.54 61.31 410.28 62.15Z"/><path fill-rule="evenodd" d="M400.28 207.15C396.64 208 397.07 207.7 395.28 210.15C398.92 209.3 398.49 209.6 400.28 207.15Z"/><path fill-rule="evenodd" d="M405.28 39.15C404.76 36.91 404.28 36.85 404.28 34.15L403.28 34.15C403.28 39.22 402.52 37.13 405.28 39.15Z"/><path fill-rule="evenodd" d="M167.28 297.15C170.2 295.01 168.5 296.51 170.28 293.15C167.55 294.14 168.22 293.1 167.28 297.15Z"/><path fill-rule="evenodd" d="M457.28 334.15C461.05 335.89 459.18 336.02 461.28 333.15C460.72 333.15 459.65 333.13 459.35 333.22C457.58 333.73 458.24 333.54 457.28 334.15Z"/><path fill-rule="evenodd" d="M454.28 428.15C452.55 425.79 451.12 425.47 447.28 425.15L454.28 428.15Z"/><path fill-rule="evenodd" d="M284.28 103.15L280.5 98.93C281.2 102.61 280.82 102.23 284.28 103.15Z"/><path fill-rule="evenodd" d="M478.28 331.15C481.2 330.45 479.72 331.28 481.28 329.15L478.28 329.15L478.28 331.15Z"/><path fill-rule="evenodd" d="M418.28 423.15C422.68 424.08 420.06 425.23 422.28 422.15C421.72 422.15 420.65 422.13 420.35 422.22C418.58 422.73 419.24 422.54 418.28 423.15Z"/><path fill-rule="evenodd" d="M174.28 430.15L179.28 430.15L179.28 429.15C178.61 429.15 176.95 429.08 176.35 429.22C174.44 429.67 175.3 429.51 174.28 430.15Z"/><path fill-rule="evenodd" d="M159.28 317.15L158.28 317.15L157.13 319.1L160.28 319.15L159.28 317.15Z"/><path fill-rule="evenodd" d="M176.28 24.15L177.28 24.15L177.28 28.15L176.28 28.15ZZ"/><path fill-rule="evenodd" d="M598.28 149.15L602.28 149.15L602.28 150.15L598.28 150.15ZZ"/><path fill-rule="evenodd" d="M26.28 149.15L30.28 149.15L30.28 150.15L26.28 150.15ZZ"/><path fill-rule="evenodd" d="M156.28 339.15C155.62 339.91 155.61 339.43 154.96 340.84C154.03 342.87 154.71 341.31 154.28 343.15C157.35 340.9 155.89 343.8 156.28 339.15Z"/><path fill-rule="evenodd" d="M169.28 371.15L172.28 371.15L172.28 372.15L169.28 372.15ZZ"/><path fill-rule="evenodd" d="M456.28 371.15L459.28 371.15L459.28 372.15L456.28 372.15ZZ"/><path fill-rule="evenodd" d="M403.28 28.15L404.28 28.15L404.28 31.15L403.28 31.15ZZ"/><path fill-rule="evenodd" d="M205.28 356.15C204.26 357.49 204.28 354.05 204.28 359.15L205.28 359.15L205.28 356.15Z"/><path fill-rule="evenodd" d="M213.28 374.15C212.26 375.49 212.28 372.05 212.28 377.15L213.28 377.15L213.28 374.15Z"/><path fill-rule="evenodd" d="M304.28 114.15C303.47 111.14 304.29 111.96 301.28 111.15L304.28 114.15Z"/><path fill-rule="evenodd" d="M339.28 85.15C338.6 82.3 339.43 83.65 337.28 82.15C337.98 85.07 337.15 83.59 339.28 85.15Z"/><path fill-rule="evenodd" d="M294.28 356.15C293.63 353.71 294.72 354.8 292.28 354.15C292.97 356.75 291.91 355.27 294.28 356.15Z"/><path fill-rule="evenodd" d="M433.28 291.15L436.28 289.15C430.1 289.68 434.69 289.56 433.28 291.15Z"/><path fill-rule="evenodd" d="M333.28 139.15L331.28 137.15L331.28 139.15L333.28 139.15Z"/><path fill-rule="evenodd" d="M269.28 90.15L269.28 88.15L267.28 88.15L269.28 90.15Z"/><path fill-rule="evenodd" d="M330.28 136.15L328.28 134.15L328.28 136.15L330.28 136.15Z"/><path fill-rule="evenodd" d="M403.28 303.15C404.31 304.18 406.9 301.71 404.44 302.61C404.41 302.62 401.6 301.47 403.28 303.15Z"/><path fill-rule="evenodd" d="M207.28 374.15C208.31 375.18 210.9 372.71 208.44 373.61C208.41 373.62 205.6 372.47 207.28 374.15Z"/><path fill-rule="evenodd" d="M34.28 188.15C35.31 189.18 37.9 186.71 35.44 187.61C35.41 187.62 32.6 186.47 34.28 188.15Z"/><path fill-rule="evenodd" d="M592.28 188.15C593.31 189.18 595.9 186.71 593.44 187.61C593.41 187.62 590.6 186.47 592.28 188.15Z"/><path fill-rule="evenodd" d="M411.28 265.15C412.31 266.18 414.9 263.71 412.44 264.61C412.41 264.62 409.6 263.47 411.28 265.15Z"/><path fill-rule="evenodd" d="M456.28 386.15C457.31 387.18 459.9 384.71 457.44 385.61C457.41 385.62 454.6 384.47 456.28 386.15Z"/><path fill-rule="evenodd" d="M217.28 259.15C218.31 260.18 220.9 257.71 218.44 258.61C218.41 258.62 215.6 257.47 217.28 259.15Z"/><path fill-rule="evenodd" d="M436.28 232.15C437.31 233.18 439.9 230.71 437.44 231.61C437.41 231.62 434.6 230.47 436.28 232.15Z"/><path fill-rule="evenodd" d="M415.28 277.15C416.31 278.18 418.9 275.71 416.44 276.61C416.41 276.62 413.6 275.47 415.28 277.15Z"/><path fill-rule="evenodd" d="M409.28 259.15C410.31 260.18 412.9 257.71 410.44 258.61C410.41 258.62 407.6 257.47 409.28 259.15Z"/><path fill-rule="evenodd" d="M449.28 339.15C450.31 340.18 452.9 337.71 450.44 338.61C450.41 338.62 447.6 337.47 449.28 339.15Z"/><path fill-rule="evenodd" d="M444.28 425.15C445.31 426.18 447.9 423.71 445.44 424.61C445.41 424.62 442.6 423.47 444.28 425.15Z"/><path fill-rule="evenodd" d="M222.28 183.15C223.31 184.18 225.9 181.71 223.44 182.61C223.41 182.62 220.6 181.47 222.28 183.15Z"/><path fill-rule="evenodd" d="M186.28 453.15C187.31 454.18 189.9 451.71 187.44 452.61C187.41 452.62 184.6 451.47 186.28 453.15Z"/><path fill-rule="evenodd" d="M450.28 274.15C451.31 275.18 453.9 272.71 451.44 273.61C451.41 273.62 448.6 272.47 450.28 274.15Z"/><path fill-rule="evenodd" d="M170.28 386.15C171.31 387.18 173.9 384.71 171.44 385.61C171.41 385.62 168.6 384.47 170.28 386.15Z"/><path fill-rule="evenodd" d="M404.28 247.15C405.31 248.18 407.9 245.71 405.44 246.61C405.41 246.62 402.6 245.47 404.28 247.15Z"/><path fill-rule="evenodd" d="M215.28 265.15C216.31 266.18 218.9 263.71 216.44 264.61C216.41 264.62 213.6 263.47 215.28 265.15Z"/><path fill-rule="evenodd" d="M485.28 327.15C486.31 328.18 488.9 325.71 486.44 326.61C486.41 326.62 483.6 325.47 485.28 327.15Z"/><path fill-rule="evenodd" d="M275.28 354.15C275.32 354.48 276.38 354.38 276.47 354.34C276.72 354.25 278.21 356.66 276.9 354.07L276.38 353.84C275.61 353.82 275.02 352.09 275.28 354.15Z"/><path fill-rule="evenodd" d="M182.28 333.15C182.28 335.64 183.88 333.41 182.9 333.15C182.89 333.15 182.28 330.31 182.28 333.15Z"/><path fill-rule="evenodd" d="M290.28 324.15C290.28 326.64 291.88 324.41 290.9 324.15C290.89 324.15 290.28 321.31 290.28 324.15Z"/><path fill-rule="evenodd" d="M175.28 329.15C175.28 331.64 176.88 329.41 175.9 329.15C175.89 329.15 175.28 326.31 175.28 329.15Z"/><path fill-rule="evenodd" d="M273.28 320.15C273.28 322.64 274.88 320.41 273.9 320.15C273.89 320.15 273.28 317.31 273.28 320.15Z"/><path fill-rule="evenodd" d="M219.28 308.15C219.28 310.64 220.88 308.41 219.9 308.15C219.89 308.15 219.28 305.31 219.28 308.15Z"/><path fill-rule="evenodd" d="M183.28 28.15C183.28 30.64 184.88 28.41 183.9 28.15C183.89 28.15 183.28 25.31 183.28 28.15Z"/><path fill-rule="evenodd" d="M153.28 28.15C153.28 30.64 154.88 28.41 153.9 28.15C153.89 28.15 153.28 25.31 153.28 28.15Z"/><path fill-rule="evenodd" d="M390.28 71.15C390.28 73.64 391.88 71.41 390.9 71.15C390.89 71.15 390.28 68.31 390.28 71.15Z"/><path fill-rule="evenodd" d="M237.28 71.15C237.28 73.64 238.88 71.41 237.9 71.15C237.89 71.15 237.28 68.31 237.28 71.15Z"/><path fill-rule="evenodd" d="M293.28 350.15C293.28 352.64 294.88 350.41 293.9 350.15C293.89 350.15 293.28 347.31 293.28 350.15Z"/><path fill-rule="evenodd" d="M217.28 345.15C217.28 347.64 218.88 345.41 217.9 345.15C217.89 345.15 217.28 342.31 217.28 345.15Z"/><path fill-rule="evenodd" d="M298.28 117.15C297.63 114.71 298.72 115.8 296.28 115.15L298.28 117.15Z"/><path fill-rule="evenodd" d="M516.28 291.15L516.28 292.15L517.45 291.32L516.28 291.15Z"/><path fill-rule="evenodd" d="M556.28 111.15L557.28 111.15L556.45 109.98L556.28 111.15Z"/><path fill-rule="evenodd" d="M105.28 259.15L104.28 259.15L105.11 260.32L105.28 259.15Z"/><path fill-rule="evenodd" d="M504.28 297.15L504.28 296.15L503.11 296.98L504.28 297.15Z"/><path fill-rule="evenodd" d="M313.28 81.15L313.28 80.15L312.11 80.98L313.28 81.15Z"/><path fill-rule="evenodd" d="M313.28 81.15L313.28 82.15L314.45 81.32L313.28 81.15Z"/><path fill-rule="evenodd" d="M49.28 88.15L49.28 87.15L48.11 87.98L49.28 88.15Z"/><path fill-rule="evenodd" d="M117.28 300.15L118.28 300.15L117.45 298.98L117.28 300.15Z"/><path fill-rule="evenodd" d="M553.28 255.15L553.28 254.15L552.11 254.98L553.28 255.15Z"/><path fill-rule="evenodd" d="M161.28 299.15L160.28 299.15L161.11 300.32L161.28 299.15Z"/><path fill-rule="evenodd" d="M404.28 508.15L404.28 509.15L405.45 508.32L404.28 508.15Z"/><path fill-rule="evenodd" d="M224.28 508.15L223.28 508.15L224.11 509.32L224.28 508.15Z"/><path fill-rule="evenodd" d="M404.28 508.15L404.28 507.15L403.11 507.98L404.28 508.15Z"/><path fill-rule="evenodd" d="M579.28 228.15L579.28 227.15L578.11 227.98L579.28 228.15Z"/><path fill-rule="evenodd" d="M95.28 269.15L96.28 269.15L95.45 267.98L95.28 269.15Z"/><path fill-rule="evenodd" d="M224.28 508.15L225.28 508.15L224.45 506.98L224.28 508.15Z"/><path fill-rule="evenodd" d="M408.28 197.15L407.28 197.15L408.11 198.32L408.28 197.15Z"/><path fill-rule="evenodd" d="M95.28 269.15L94.28 269.15L95.11 270.32L95.28 269.15Z"/><path fill-rule="evenodd" d="M166.28 299.15L165.28 299.15L166.11 300.32L166.28 299.15Z"/><path fill-rule="evenodd" d="M205.28 489.15L204.28 489.15L205.11 490.32L205.28 489.15Z"/><path fill-rule="evenodd" d="M205.28 489.15L206.28 489.15L205.45 487.98L205.28 489.15Z"/><path fill-rule="evenodd" d="M200.28 489.15L201.28 489.15L200.45 487.98L200.28 489.15Z"/><path fill-rule="evenodd" d="M579.28 88.15L580.28 88.15L579.45 86.98L579.28 88.15Z"/><path fill-rule="evenodd" d="M250.28 88.15L250.28 89.15L251.45 88.32L250.28 88.15Z"/><path fill-rule="evenodd" d="M195.28 481.15L196.28 481.15L195.45 479.98L195.28 481.15Z"/><path fill-rule="evenodd" d="M72.28 111.15L72.28 110.15L71.11 110.98L72.28 111.15Z"/><path fill-rule="evenodd" d="M124.28 297.15L125.28 297.15L124.45 295.98L124.28 297.15Z"/><path fill-rule="evenodd" d="M277.28 111.15L277.28 110.15L276.11 110.98L277.28 111.15Z"/><path fill-rule="evenodd" d="M301.28 111.15L301.28 110.15L300.11 110.98L301.28 111.15Z"/><path fill-rule="evenodd" d="M243.28 186.15L243.28 187.15L244.45 186.32L243.28 186.15Z"/><path fill-rule="evenodd" d="M511.28 300.15L511.28 299.15L510.11 299.98L511.28 300.15Z"/><path fill-rule="evenodd" d="M277.28 111.15L277.28 112.15L278.45 111.32L277.28 111.15Z"/><path fill-rule="evenodd" d="M125.28 301.15L126.28 301.15L125.45 299.98L125.28 301.15Z"/><path fill-rule="evenodd" d="M213.28 374.15L214.28 374.15L213.45 372.98L213.28 374.15Z"/><path fill-rule="evenodd" d="M503.28 301.15L503.28 300.15L502.11 300.98L503.28 301.15Z"/><path fill-rule="evenodd" d="M565.28 184.15L565.28 185.15L566.45 184.32L565.28 184.15Z"/><path fill-rule="evenodd" d="M125.28 301.15L124.28 301.15L125.11 302.32L125.28 301.15Z"/><path fill-rule="evenodd" d="M458.28 313.15L457.28 313.15L458.11 314.32L458.28 313.15Z"/><path fill-rule="evenodd" d="M112.28 291.15L113.28 291.15L112.45 289.98L112.28 291.15Z"/><path fill-rule="evenodd" d="M63.28 184.15L62.28 184.15L63.11 185.32L63.28 184.15Z"/><path fill-rule="evenodd" d="M516.28 291.15L516.28 290.15L515.11 290.98L516.28 291.15Z"/><path fill-rule="evenodd" d="M108.28 292.15L109.28 292.15L108.45 290.98L108.28 292.15Z"/><path fill-rule="evenodd" d="M112.28 291.15L111.28 291.15L112.11 292.32L112.28 291.15Z"/><path fill-rule="evenodd" d="M272.28 116.15L272.28 117.15L273.45 116.32L272.28 116.15Z"/><path fill-rule="evenodd" d="M520.28 292.15L520.28 291.15L519.11 291.98L520.28 292.15Z"/><path fill-rule="evenodd" d="M276.28 350.15L276.28 351.15L277.45 350.32L276.28 350.15Z"/><path fill-rule="evenodd" d="M232.28 152.15L232.28 153.15L233.45 152.32L232.28 152.15Z"/><path fill-rule="evenodd" d="M289.28 53.15L289.28 54.15L290.45 53.32L289.28 53.15Z"/><path fill-rule="evenodd" d="M110.28 294.15L111.28 294.15L110.45 292.98L110.28 294.15Z"/><path fill-rule="evenodd" d="M276.28 350.15L276.28 349.15L275.11 349.98L276.28 350.15Z"/><path fill-rule="evenodd" d="M518.28 289.15L518.28 290.15L519.45 289.32L518.28 289.15Z"/><path fill-rule="evenodd" d="M241.28 185.15L241.28 184.15L240.11 184.98L241.28 185.15Z"/><path fill-rule="evenodd" d="M272.28 116.15L272.28 115.15L271.11 115.98L272.28 116.15Z"/><path fill-rule="evenodd" d="M110.28 289.15L111.28 289.15L110.45 287.98L110.28 289.15Z"/><path fill-rule="evenodd" d="M302.28 60.15L302.28 61.15L303.45 60.32L302.28 60.15Z"/><path fill-rule="evenodd" d="M537.28 279.15L537.28 278.15L536.11 278.98L537.28 279.15Z"/><path fill-rule="evenodd" d="M479.28 272.15L480.28 272.15L479.45 270.98L479.28 272.15Z"/><path fill-rule="evenodd" d="M232.28 523.15L233.28 523.15L232.45 521.98L232.28 523.15Z"/><path fill-rule="evenodd" d="M267.28 88.15L267.28 87.15L266.11 87.98L267.28 88.15Z"/><path fill-rule="evenodd" d="M124.28 297.15L123.28 297.15L124.11 298.32L124.28 297.15Z"/><path fill-rule="evenodd" d="M555.28 257.15L555.28 258.15L556.45 257.32L555.28 257.15Z"/><path fill-rule="evenodd" d="M396.28 523.15L396.28 522.15L395.11 522.98L396.28 523.15Z"/><path fill-rule="evenodd" d="M176.28 264.15L177.28 264.15L176.45 262.98L176.28 264.15Z"/><path fill-rule="evenodd" d="M462.28 321.15L462.28 320.15L461.11 320.98L462.28 321.15Z"/><path fill-rule="evenodd" d="M265.28 113.15L265.28 114.15L266.45 113.32L265.28 113.15Z"/><path fill-rule="evenodd" d="M518.28 289.15L518.28 288.15L517.11 288.98L518.28 289.15Z"/><path fill-rule="evenodd" d="M110.28 289.15L109.28 289.15L110.11 290.32L110.28 289.15Z"/><path fill-rule="evenodd" d="M518.28 294.15L518.28 293.15L517.11 293.98L518.28 294.15Z"/><path fill-rule="evenodd" d="M265.28 96.15L265.28 95.15L264.11 95.98L265.28 96.15Z"/><path fill-rule="evenodd" d="M91.28 279.15L92.28 279.15L91.45 277.98L91.28 279.15Z"/><path fill-rule="evenodd" d="M212.28 333.15L213.28 333.15L212.45 331.98L212.28 333.15Z"/><path fill-rule="evenodd" d="M504.28 297.15L504.28 298.15L505.45 297.32L504.28 297.15Z"/><path fill-rule="evenodd" d="M326.28 132.15L326.28 131.15L325.11 131.98L326.28 132.15Z"/><path fill-rule="evenodd" d="M411.28 189.15L410.28 189.15L411.11 190.32L411.28 189.15Z"/><path fill-rule="evenodd" d="M163.28 325.15L164.28 325.15L163.45 323.98L163.28 325.15Z"/><path fill-rule="evenodd" d="M276.28 357.15L276.28 356.15L275.11 356.98L276.28 357.15Z"/><path fill-rule="evenodd" d="M271.28 92.15L271.28 91.15L270.28 91.15L271.28 92.15Z"/><path fill-rule="evenodd" d="M507.28 296.15C507.38 296.25 507.58 295.71 507.58 295.85L507.58 295.85C507.56 295.87 507.18 296.05 507.28 296.15Z"/><path fill-rule="evenodd" d="M237.28 350.15C237.38 350.25 237.58 349.71 237.58 349.85L237.58 349.85C237.56 349.87 237.18 350.05 237.28 350.15Z"/><path fill-rule="evenodd" d="M120.28 296.15C120.38 296.25 120.58 295.71 120.58 295.85L120.58 295.85C120.56 295.87 120.18 296.05 120.28 296.15Z"/><path fill-rule="evenodd" d="M556.28 193.15C556.38 193.25 556.58 192.71 556.58 192.85L556.58 192.85C556.56 192.87 556.18 193.05 556.28 193.15Z"/><path fill-rule="evenodd" d="M207.28 494.15C207.38 494.25 207.58 493.71 207.58 493.85L207.58 493.85C207.56 493.87 207.18 494.05 207.28 494.15Z"/><path fill-rule="evenodd" d="M395.28 521.15C395.38 521.25 395.58 520.71 395.58 520.85L395.58 520.85C395.56 520.87 395.18 521.05 395.28 521.15Z"/><path fill-rule="evenodd" d="M234.28 521.15C234.38 521.25 234.58 520.71 234.58 520.85L234.58 520.85C234.56 520.87 234.18 521.05 234.28 521.15Z"/><path fill-rule="evenodd" d="M393.28 521.15C393.38 521.25 393.58 520.71 393.58 520.85L393.58 520.85C393.56 520.87 393.18 521.05 393.28 521.15Z"/><path fill-rule="evenodd" d="M174.28 392.15C174.38 392.25 174.58 391.71 174.58 391.85L174.58 391.85C174.56 391.87 174.18 392.05 174.28 392.15Z"/><path fill-rule="evenodd" d="M475.28 331.15C475.38 331.25 475.58 330.71 475.58 330.85L475.58 330.85C475.56 330.87 475.18 331.05 475.28 331.15Z"/><path fill-rule="evenodd" d="M453.28 385.15C453.38 385.25 453.58 384.71 453.58 384.85L453.58 384.85C453.56 384.87 453.18 385.05 453.28 385.15Z"/><path fill-rule="evenodd" d="M420.28 494.15C420.38 494.25 420.58 493.71 420.58 493.85L420.58 493.85C420.56 493.87 420.18 494.05 420.28 494.15Z"/><path fill-rule="evenodd" d="M281.28 328.15C281.38 328.25 281.58 327.71 281.58 327.85L281.58 327.85C281.56 327.87 281.18 328.05 281.28 328.15Z"/><path fill-rule="evenodd" d="M272.28 328.15C272.38 328.25 272.58 327.71 272.58 327.85L272.58 327.85C272.56 327.87 272.18 328.05 272.28 328.15Z"/><path fill-rule="evenodd" d="M173.28 382.15C173.38 382.25 173.58 381.71 173.58 381.85L173.58 381.85C173.56 381.87 173.18 382.05 173.28 382.15Z"/><path fill-rule="evenodd" d="M232.28 521.15C232.38 521.25 232.58 520.71 232.58 520.85L232.58 520.85C232.56 520.87 232.18 521.05 232.28 521.15Z"/><path fill-rule="evenodd" d="M216.28 509.15C216.38 509.25 216.58 508.71 216.58 508.85L216.58 508.85C216.56 508.87 216.18 509.05 216.28 509.15Z"/><path fill-rule="evenodd" d="M202.28 491.15C202.38 491.25 202.58 490.71 202.58 490.85L202.58 490.85C202.56 490.87 202.18 491.05 202.28 491.15Z"/><path fill-rule="evenodd" d="M226.28 314.15C226.38 314.25 226.58 313.71 226.58 313.85L226.58 313.85C226.56 313.87 226.18 314.05 226.28 314.15Z"/><path fill-rule="evenodd" d="M451.28 278.15C451.38 278.25 451.58 277.71 451.58 277.85L451.58 277.85C451.56 277.87 451.18 278.05 451.28 278.15Z"/><path fill-rule="evenodd" d="M289.28 350.15C289.38 350.25 289.58 349.71 289.58 349.85L289.58 349.85C289.56 349.87 289.18 350.05 289.28 350.15Z"/><path fill-rule="evenodd" d="M558.28 58.15C558.38 58.25 558.58 57.71 558.58 57.85L558.58 57.85C558.56 57.87 558.18 58.05 558.28 58.15Z"/><path fill-rule="evenodd" d="M233.28 313.15C233.38 313.25 233.58 312.71 233.58 312.85L233.58 312.85C233.56 312.87 233.18 313.05 233.28 313.15Z"/><path fill-rule="evenodd" d="M130.28 25.15C130.38 25.25 130.58 24.71 130.58 24.85L130.58 24.85C130.56 24.87 130.18 25.05 130.28 25.15Z"/><path fill-rule="evenodd" d="M300.28 330.15C300.38 330.25 300.58 329.71 300.58 329.85L300.58 329.85C300.56 329.87 300.18 330.05 300.28 330.15Z"/><path fill-rule="evenodd" d="M390.28 348.15C390.38 348.25 390.58 347.71 390.58 347.85L390.58 347.85C390.56 347.87 390.18 348.05 390.28 348.15Z"/><path fill-rule="evenodd" d="M237.28 348.15C237.38 348.25 237.58 347.71 237.58 347.85L237.58 347.85C237.56 347.87 237.18 348.05 237.28 348.15Z"/><path fill-rule="evenodd" d="M384.28 318.15C384.38 318.25 384.58 317.71 384.58 317.85L384.58 317.85C384.56 317.87 384.18 318.05 384.28 318.15Z"/><path fill-rule="evenodd" d="M294.28 327.15C294.38 327.25 294.58 326.71 294.58 326.85L294.58 326.85C294.56 326.87 294.18 327.05 294.28 327.15Z"/><path fill-rule="evenodd" d="M348.28 543.15C348.38 543.25 348.58 542.71 348.58 542.85L348.58 542.85C348.56 542.87 348.18 543.05 348.28 543.15Z"/><path fill-rule="evenodd" d="M213.28 61.15C213.38 61.25 213.58 60.71 213.58 60.85L213.58 60.85C213.56 60.87 213.18 61.05 213.28 61.15Z"/><path fill-rule="evenodd" d="M458.28 393.15C458.38 393.25 458.58 392.71 458.58 392.85L458.58 392.85C458.56 392.87 458.18 393.05 458.28 393.15Z"/><path fill-rule="evenodd" d="M319.28 74.15C319.38 74.25 319.58 73.71 319.58 73.85L319.58 73.85C319.56 73.87 319.18 74.05 319.28 74.15Z"/><path fill-rule="evenodd" d="M166.28 393.15C166.38 393.25 166.58 392.71 166.58 392.85L166.58 392.85C166.56 392.87 166.18 393.05 166.28 393.15Z"/><path fill-rule="evenodd" d="M301.28 51.15C301.38 51.25 301.58 50.71 301.58 50.85L301.58 50.85C301.56 50.87 301.18 51.05 301.28 51.15Z"/><path fill-rule="evenodd" d="M238.28 69.15C238.38 69.25 238.58 68.71 238.58 68.85L238.58 68.85C238.56 68.87 238.18 69.05 238.28 69.15Z"/><path fill-rule="evenodd" d="M296.28 546.15C296.38 546.25 296.58 545.71 296.58 545.85L296.58 545.85C296.56 545.87 296.18 546.05 296.28 546.15Z"/><path fill-rule="evenodd" d="M153.28 33.15C153.38 33.25 153.58 32.71 153.58 32.85L153.58 32.85C153.56 32.87 153.18 33.05 153.28 33.15Z"/><path fill-rule="evenodd" d="M508.28 298.15C508.38 298.25 508.58 297.71 508.58 297.85L508.58 297.85C508.56 297.87 508.18 298.05 508.28 298.15Z"/><path fill-rule="evenodd" d="M497.28 25.15C497.38 25.25 497.58 24.71 497.58 24.85L497.58 24.85C497.56 24.87 497.18 25.05 497.28 25.15Z"/><path fill-rule="evenodd" d="M407.28 246.15C407.38 246.25 407.58 245.71 407.58 245.85L407.58 245.85C407.56 245.87 407.18 246.05 407.28 246.15Z"/><path fill-rule="evenodd" d="M289.28 327.15C289.38 327.25 289.58 326.71 289.58 326.85L289.58 326.85C289.56 326.87 289.18 327.05 289.28 327.15Z"/><path fill-rule="evenodd" d="M238.28 315.15C238.38 315.25 238.58 314.71 238.58 314.85L238.58 314.85C238.56 314.87 238.18 315.05 238.28 315.15Z"/><path fill-rule="evenodd" d="M593.28 113.15C593.38 113.25 593.58 112.71 593.58 112.85L593.58 112.85C593.56 112.87 593.18 113.05 593.28 113.15Z"/><path fill-rule="evenodd" d="M126.28 299.15C126.38 299.25 126.58 298.71 126.58 298.85L126.58 298.85C126.56 298.87 126.18 299.05 126.28 299.15Z"/><path fill-rule="evenodd" d="M169.28 393.15C169.38 393.25 169.58 392.71 169.58 392.85L169.58 392.85C169.56 392.87 169.18 393.05 169.28 393.15Z"/><path fill-rule="evenodd" d="M389.28 69.15C389.38 69.25 389.58 68.71 389.58 68.85L389.58 68.85C389.56 68.87 389.18 69.05 389.28 69.15Z"/><path fill-rule="evenodd" d="M272.28 325.15C272.38 325.25 272.58 324.71 272.58 324.85L272.58 324.85C272.56 324.87 272.18 325.05 272.28 325.15Z"/><path fill-rule="evenodd" d="M461.28 393.15C461.38 393.25 461.58 392.71 461.58 392.85L461.58 392.85C461.56 392.87 461.18 393.05 461.28 393.15Z"/><path fill-rule="evenodd" d="M331.28 546.15C331.38 546.25 331.58 545.71 331.58 545.85L331.58 545.85C331.56 545.87 331.18 546.05 331.28 546.15Z"/><path fill-rule="evenodd" d="M277.28 348.15C277.38 348.25 277.58 347.71 277.58 347.85L277.58 347.85C277.56 347.87 277.18 348.05 277.28 348.15Z"/><path fill-rule="evenodd" d="M119.28 298.15C119.38 298.25 119.58 297.71 119.58 297.85L119.58 297.85C119.56 297.87 119.18 298.05 119.28 298.15Z"/><path fill-rule="evenodd" d="M218.28 343.15C218.38 343.25 218.58 342.71 218.58 342.85L218.58 342.85C218.56 342.87 218.18 343.05 218.28 343.15Z"/><path fill-rule="evenodd" d="M244.28 316.15C244.38 316.25 244.58 315.71 244.58 315.85L244.58 315.85C244.56 315.87 244.18 316.05 244.28 316.15Z"/><path fill-rule="evenodd" d="M388.28 65.15C388.38 65.25 388.58 64.71 388.58 64.85L388.58 64.85C388.56 64.87 388.18 65.05 388.28 65.15Z"/><path fill-rule="evenodd" d="M239.28 65.15C239.38 65.25 239.58 64.71 239.58 64.85L239.58 64.85C239.56 64.87 239.18 65.05 239.28 65.15Z"/><path fill-rule="evenodd" d="M411.28 509.15C411.38 509.25 411.58 508.71 411.58 508.85L411.58 508.85C411.56 508.87 411.18 509.05 411.28 509.15Z"/><path fill-rule="evenodd" d="M450.28 385.15C450.38 385.25 450.58 384.71 450.58 384.85L450.58 384.85C450.56 384.87 450.18 385.05 450.28 385.15Z"/><path fill-rule="evenodd" d="M459.28 322.15C459.38 322.25 459.58 321.71 459.58 321.85L459.58 321.85C459.56 321.87 459.18 322.05 459.28 322.15Z"/><path fill-rule="evenodd" d="M450.28 295.15C450.38 295.25 450.58 294.71 450.58 294.85L450.58 294.85C450.56 294.87 450.18 295.05 450.28 295.15Z"/><path fill-rule="evenodd" d="M450.28 372.15C450.38 372.25 450.58 371.71 450.58 371.85L450.58 371.85C450.56 371.87 450.18 372.05 450.28 372.15Z"/><path fill-rule="evenodd" d="M414.28 264.15C414.38 264.25 414.58 263.71 414.58 263.85L414.58 263.85C414.56 263.87 414.18 264.05 414.28 264.15Z"/><path fill-rule="evenodd" d="M375.28 317.15C375.38 317.25 375.58 316.71 375.58 316.85L375.58 316.85C375.56 316.87 375.18 317.05 375.28 317.15Z"/><path fill-rule="evenodd" d="M398.28 302.15C398.38 302.25 398.58 301.71 398.58 301.85L398.58 301.85C398.56 301.87 398.18 302.05 398.28 302.15Z"/><path fill-rule="evenodd" d="M218.28 311.15C218.38 311.25 218.58 310.71 218.58 310.85L218.58 310.85C218.56 310.87 218.18 311.05 218.28 311.15Z"/><path fill-rule="evenodd" d="M299.28 351.15C299.38 351.25 299.58 350.71 299.58 350.85L299.58 350.85C299.56 350.87 299.18 351.05 299.28 351.15Z"/><path fill-rule="evenodd" d="M227.28 311.15C227.38 311.25 227.58 310.71 227.58 310.85L227.58 310.85C227.56 310.87 227.18 311.05 227.28 311.15Z"/><path fill-rule="evenodd" d="M232.28 315.15C232.38 315.25 232.58 314.71 232.58 314.85L232.58 314.85C232.56 314.87 232.18 315.05 232.28 315.15Z"/><path fill-rule="evenodd" d="M501.28 299.15C501.38 299.25 501.58 298.71 501.58 298.85L501.58 298.85C501.56 298.87 501.18 299.05 501.28 299.15Z"/><path fill-rule="evenodd" d="M591.28 137.15C591.38 137.25 591.58 136.71 591.58 136.85L591.58 136.85C591.56 136.87 591.18 137.05 591.28 137.15Z"/><path fill-rule="evenodd" d="M514.28 41.15C514.38 41.25 514.58 40.71 514.58 40.85L514.58 40.85C514.56 40.87 514.18 41.05 514.28 41.15Z"/><path fill-rule="evenodd" d="M329.28 553.15C329.38 553.25 329.58 552.71 329.58 552.85L329.58 552.85C329.56 552.87 329.18 553.05 329.28 553.15Z"/><path fill-rule="evenodd" d="M289.28 329.15C289.38 329.25 289.58 328.71 289.58 328.85L289.58 328.85C289.56 328.87 289.18 329.05 289.28 329.15Z"/><path fill-rule="evenodd" d="M284.28 351.15C284.38 351.25 284.58 350.71 284.58 350.85L284.58 350.85C284.56 350.87 284.18 351.05 284.28 351.15Z"/><path fill-rule="evenodd" d="M280.28 353.15C280.38 353.25 280.58 352.71 280.58 352.85L280.58 352.85C280.56 352.87 280.18 353.05 280.28 353.15Z"/><path fill-rule="evenodd" d="M423.28 321.15C423.38 321.25 423.58 320.71 423.58 320.85L423.58 320.85C423.56 320.87 423.18 321.05 423.28 321.15Z"/><path fill-rule="evenodd" d="M378.28 535.15C378.38 535.25 378.58 534.71 378.58 534.85L378.58 534.85C378.56 534.87 378.18 535.05 378.28 535.15Z"/><path fill-rule="evenodd" d="M288.28 95.15C288.38 95.25 288.58 94.71 288.58 94.85L288.58 94.85C288.56 94.87 288.18 95.05 288.28 95.15Z"/><path fill-rule="evenodd" d="M453.28 392.15L453.58 391.85C453.56 391.87 453.18 392.05 453.28 392.15Z"/><path fill-rule="evenodd" d="M174.28 385.15L174.58 384.85C174.56 384.87 174.18 385.05 174.28 385.15Z"/><path fill-rule="evenodd" d="M243.28 318.15L243.58 317.85C243.56 317.87 243.18 318.05 243.28 318.15Z"/><path fill-rule="evenodd" d="M40.28 138.15L40.58 137.85C40.56 137.87 40.18 138.05 40.28 138.15Z"/><path fill-rule="evenodd" d="M202.28 25.15L202.58 24.85C202.56 24.87 202.18 25.05 202.28 25.15Z"/><path fill-rule="evenodd" d="M36.28 102.15L36.58 101.85C36.56 101.87 36.18 102.05 36.28 102.15Z"/><path fill-rule="evenodd" d="M31.28 120.15L31.58 119.85C31.56 119.87 31.18 120.05 31.28 120.15Z"/><path fill-rule="evenodd" d="M187.28 446.15L187.58 445.85C187.56 445.87 187.18 446.05 187.28 446.15Z"/><path fill-rule="evenodd" d="M172.28 392.15L172.58 391.85C172.56 391.87 172.18 392.05 172.28 392.15Z"/><path fill-rule="evenodd" d="M455.28 392.15L455.58 391.85C455.56 391.87 455.18 392.05 455.28 392.15Z"/><path fill-rule="evenodd" d="M449.28 279.15L449.58 278.85C449.56 278.87 449.18 279.05 449.28 279.15Z"/><path fill-rule="evenodd" d="M288.28 355.15L288.58 354.85C288.56 354.87 288.18 355.05 288.28 355.15Z"/><path fill-rule="evenodd" d="M184.28 454.15L184.58 453.85C184.56 453.87 184.18 454.05 184.28 454.15Z"/><path fill-rule="evenodd" d="M390.28 350.15L390.58 349.85C390.56 349.87 390.18 350.05 390.28 350.15Z"/><path fill-rule="evenodd" d="M300.28 328.15L300.58 327.85C300.56 327.87 300.18 328.05 300.28 328.15Z"/><path fill-rule="evenodd" d="M273.28 323.15L273.58 322.85C273.56 322.87 273.18 323.05 273.28 323.15Z"/><path fill-rule="evenodd" d="M454.28 382.15L454.58 381.85C454.56 381.87 454.18 382.05 454.28 382.15Z"/><path fill-rule="evenodd" d="M175.28 35.15L175.58 34.85C175.56 34.87 175.18 35.05 175.28 35.15Z"/><path fill-rule="evenodd" d="M63.28 121.15L63.58 120.85C63.56 120.87 63.18 121.05 63.28 121.15Z"/><path fill-rule="evenodd" d="M566.28 162.15L566.58 161.85C566.56 161.87 566.18 162.05 566.28 162.15Z"/><path fill-rule="evenodd" d="M597.28 135.15L597.58 134.85C597.56 134.87 597.18 135.05 597.28 135.15Z"/><path fill-rule="evenodd" d="M435.28 239.15L435.58 238.85C435.56 238.87 435.18 239.05 435.28 239.15Z"/><path fill-rule="evenodd" d="M30.28 135.15L30.58 134.85C30.56 134.87 30.18 135.05 30.28 135.15Z"/><path fill-rule="evenodd" d="M591.28 102.15L591.58 101.85C591.56 101.87 591.18 102.05 591.28 102.15Z"/><path fill-rule="evenodd" d="M587.28 138.15L587.58 137.85C587.56 137.87 587.18 138.05 587.28 138.15Z"/><path fill-rule="evenodd" d="M596.28 120.15L596.58 119.85C596.56 119.87 596.18 120.05 596.28 120.15Z"/><path fill-rule="evenodd" d="M452.28 295.15L452.58 294.85C452.56 294.87 452.18 295.05 452.28 295.15Z"/><path fill-rule="evenodd" d="M597.28 132.15L597.58 131.85C597.56 131.87 597.18 132.05 597.28 132.15Z"/><path fill-rule="evenodd" d="M30.28 132.15L30.58 131.85C30.56 131.87 30.18 132.05 30.28 132.15Z"/><path fill-rule="evenodd" d="M319.28 132.15L319.58 131.85C319.56 131.87 319.18 132.05 319.28 132.15Z"/><path fill-rule="evenodd" d="M31.28 177.15L31.58 176.85C31.56 176.87 31.18 177.05 31.28 177.15Z"/><path fill-rule="evenodd" d="M197.28 303.15L197.58 302.85C197.56 302.87 197.18 303.05 197.28 303.15Z"/><path fill-rule="evenodd" d="M36.28 137.15L36.58 136.85C36.56 136.87 36.18 137.05 36.28 137.15Z"/><path fill-rule="evenodd" d="M565.28 159.15L565.58 158.85C565.56 158.87 565.18 159.05 565.28 159.15Z"/><path fill-rule="evenodd" d="M421.28 307.15L421.58 306.85C421.56 306.87 421.18 307.05 421.28 307.15Z"/><path fill-rule="evenodd" d="M566.28 114.15L566.58 113.85C566.56 113.87 566.18 114.05 566.28 114.15Z"/><path fill-rule="evenodd" d="M62.28 159.15L62.58 158.85C62.56 158.87 62.18 159.05 62.28 159.15Z"/><path fill-rule="evenodd" d="M288.28 353.15L288.58 352.85C288.56 352.87 288.18 353.05 288.28 353.15Z"/><path fill-rule="evenodd" d="M300.28 325.15L300.58 324.85C300.56 324.87 300.18 325.05 300.28 325.15Z"/><path fill-rule="evenodd" d="M455.28 322.15L455.58 321.85C455.56 321.87 455.18 322.05 455.28 322.15Z"/><path fill-rule="evenodd" d="M60.28 138.15L60.58 137.85C60.56 137.87 60.18 138.05 60.28 138.15Z"/><path fill-rule="evenodd" d="M567.28 138.15L567.58 137.85C567.56 137.87 567.18 138.05 567.28 138.15Z"/><path fill-rule="evenodd" d="M194.28 30.15L194.58 29.85C194.56 29.87 194.18 30.05 194.28 30.15Z"/><path fill-rule="evenodd" d="M280.28 349.15L280.58 348.85C280.56 348.87 280.18 349.05 280.28 349.15Z"/><path fill-rule="evenodd" d="M299.28 356.15L299.58 355.85C299.56 355.87 299.18 356.05 299.28 356.15Z"/><path fill-rule="evenodd" d="M564.28 121.15L564.58 120.85C564.56 120.87 564.18 121.05 564.28 121.15Z"/><path fill-rule="evenodd" d="M61.28 162.15L61.58 161.85C61.56 161.87 61.18 162.05 61.28 162.15Z"/><path fill-rule="evenodd" d="M34.28 113.15L34.58 112.85C34.56 112.87 34.18 113.05 34.28 113.15Z"/><path fill-rule="evenodd" d="M196.28 23.15L196.58 22.85C196.56 22.87 196.18 23.05 196.28 23.15Z"/><path fill-rule="evenodd" d="M177.28 372.15L177.58 371.85C177.56 371.87 177.18 372.05 177.28 372.15Z"/><path fill-rule="evenodd" d="M177.28 385.15L177.58 384.85C177.56 384.87 177.18 385.05 177.28 385.15Z"/><path fill-rule="evenodd" d="M213.28 264.15L213.58 263.85C213.56 263.87 213.18 264.05 213.28 264.15Z"/><path fill-rule="evenodd" d="M113.28 41.15L113.58 40.85C113.56 40.87 113.18 41.05 113.28 41.15Z"/><path fill-rule="evenodd" d="M298.28 553.15L298.58 552.85C298.56 552.87 298.18 553.05 298.28 553.15Z"/><path fill-rule="evenodd" d="M69.28 58.15L69.58 57.85C69.56 57.87 69.18 58.05 69.28 58.15Z"/><path fill-rule="evenodd" d="M293.28 332.15L293.58 331.85C293.56 331.87 293.18 332.05 293.28 332.15Z"/><path fill-rule="evenodd" d="M410.28 347.15L410.58 346.85C410.56 346.87 410.18 347.05 410.28 347.15Z"/><path fill-rule="evenodd" d="M299.28 353.15L299.58 352.85C299.56 352.87 299.18 353.05 299.28 353.15Z"/><path fill-rule="evenodd" d="M182.28 33.15L182.58 32.85C182.56 32.87 182.18 33.05 182.28 33.15Z"/><path fill-rule="evenodd" d="M61.28 114.15L61.58 113.85C61.56 113.87 61.18 114.05 61.28 114.15Z"/><path fill-rule="evenodd" d="M596.28 177.15L596.58 176.85C596.56 176.87 596.18 177.05 596.28 177.15Z"/><path fill-rule="evenodd" d="M46.28 87.15L46.58 86.85C46.56 86.87 46.18 87.05 46.28 87.15Z"/><path fill-rule="evenodd" d="M293.28 353.15L293.58 352.85C293.56 352.87 293.18 353.05 293.28 353.15Z"/><path fill-rule="evenodd" d="M383.28 316.15L383.58 315.85C383.56 315.87 383.18 316.05 383.28 316.15Z"/><path fill-rule="evenodd" d="M581.28 87.15L581.58 86.85C581.56 86.87 581.18 87.05 581.28 87.15Z"/><path fill-rule="evenodd" d="M446.28 267.15L446.58 266.85C446.56 266.87 446.18 267.05 446.28 267.15Z"/><path fill-rule="evenodd" d="M249.28 535.15L249.58 534.85C249.56 534.87 249.18 535.05 249.28 535.15Z"/><path fill-rule="evenodd" d="M294.28 325.15L294.58 324.85C294.56 324.87 294.18 325.05 294.28 325.15Z"/><path fill-rule="evenodd" d="M175.28 266.15L176.28 264.15L175.28 266.15Z"/><path fill-rule="evenodd" d="M400.28 207.15L402.43 206.6L400.28 207.15Z"/><path fill-rule="evenodd" d="M467.28 275.15L465.28 276.15L467.28 275.15Z"/><path fill-rule="evenodd" d="M413.28 188.15L411.28 189.15L413.28 188.15Z"/><path fill-rule="evenodd" d="M49.28 88.15L51.23 89.3L49.28 88.15Z"/><path fill-rule="evenodd" d="M579.28 88.15L577.13 88.7L579.28 88.15Z"/><path fill-rule="evenodd" d="M232.28 523.15L231.28 524.15L232.28 523.15Z"/><path fill-rule="evenodd" d="M397.28 524.15L396.28 523.15L397.28 524.15Z"/><path fill-rule="evenodd" d="M270.28 91.15L269.28 90.15L270.28 91.15Z"/><path fill-rule="evenodd" d="M272.28 91.15L271.28 91.15L272.28 91.15Z"/><path fill-rule="evenodd" d="M242.28 188.15L240.33 187L242.28 188.15Z"/><path fill-rule="evenodd" d="M417.28 283.15L419.43 282.6L417.28 283.15Z"/><path fill-rule="evenodd" d="M418.28 287.15L420.43 286.6L418.28 287.15Z"/><path fill-rule="evenodd" d="M209.28 416.15L207.13 416.7L209.28 416.15Z"/><path fill-rule="evenodd" d="M243.28 186.15L241.28 185.15L243.28 186.15Z"/><path fill-rule="evenodd" d="M299.28 118.15L298.28 117.15L299.28 118.15Z"/><path fill-rule="evenodd" d="M162.28 359.15L163.43 357.2L162.28 359.15Z"/><path fill-rule="evenodd" d="M294.28 356.15L294.83 358.3L294.28 356.15Z"/><path fill-rule="evenodd" d="M108.28 292.15L107.28 293.15L108.28 292.15Z"/><path fill-rule="evenodd" d="M565.28 184.15L563.33 183L565.28 184.15Z"/><path fill-rule="evenodd" d="M328.28 134.15L327.28 133.15L328.28 134.15Z"/><path fill-rule="evenodd" d="M26.28 134.15L28.23 135.3L26.28 134.15Z"/><path fill-rule="evenodd" d="M602.28 134.15L600.13 134.7L602.28 134.15Z"/><path fill-rule="evenodd" d="M331.28 137.15L330.28 136.15L331.28 137.15Z"/><path fill-rule="evenodd" d="M163.28 321.15L164.28 319.15L163.28 321.15Z"/><path fill-rule="evenodd" d="M554.28 256.15L553.28 255.15L554.28 256.15Z"/><path fill-rule="evenodd" d="M164.28 319.15L165.43 317.2L164.28 319.15Z"/><path fill-rule="evenodd" d="M325.28 72.15L325.83 74.3L325.28 72.15Z"/><path fill-rule="evenodd" d="M521.28 293.15L520.28 292.15L521.28 293.15Z"/><path fill-rule="evenodd" d="M325.28 72.15L324.28 71.15L325.28 72.15Z"/><path fill-rule="evenodd" d="M63.28 184.15L65.43 183.6L63.28 184.15Z"/><path fill-rule="evenodd" d="M159.28 317.15L158.28 317.15L159.28 317.15Z"/><path fill-rule="evenodd" d="M460.28 313.15L459.28 313.15L460.28 313.15Z"/><path fill-rule="evenodd" d="M459.28 313.15L458.28 313.15L459.28 313.15Z"/><path fill-rule="evenodd" d="M505.28 304.15L504.28 302.15L505.28 304.15Z"/><path fill-rule="evenodd" d="M504.28 302.15L503.28 301.15L504.28 302.15Z"/><path fill-rule="evenodd" d="M106.28 258.15L105.28 259.15L106.28 258.15Z"/><path fill-rule="evenodd" d="M302.28 60.15L301.28 58.15L302.28 60.15Z"/><path fill-rule="evenodd" d="M166.28 299.15L167.28 297.15L166.28 299.15Z"/><path fill-rule="evenodd" d="M161.28 299.15L162.28 297.15L161.28 299.15Z"/><path fill-rule="evenodd" d="M555.28 257.15L554.28 256.15L555.28 257.15Z"/><path fill-rule="evenodd" d="M327.28 133.15L326.28 132.15L327.28 133.15Z"/>
</svg>
